<?xml version="1.0" encoding="UTF-8"?>
<!DOCTYPE svg PUBLIC "-//W3C//DTD SVG 1.1//EN" "http://www.w3.org/Graphics/SVG/1.1/DTD/svg11.dtd">
<!-- Creator: CorelDRAW 2020 (64 Bit) -->
<svg xmlns="http://www.w3.org/2000/svg" xml:space="preserve" width="219.665mm" height="42.8466mm" version="1.1" style="shape-rendering:geometricPrecision; text-rendering:geometricPrecision; image-rendering:optimizeQuality; fill-rule:evenodd; clip-rule:evenodd"
viewBox="0 0 33074.63 6451.35"
 xmlns:xlink="http://www.w3.org/1999/xlink"
 xmlns:xodm="http://www.corel.com/coreldraw/odm/2003">
 <defs>
  <style type="text/css">
   <![CDATA[
    .fil1 {fill:#193840}
    .fil0 {fill:#BFDE42}
    .fil2 {fill:#42B4CA;fill-rule:nonzero}
   ]]>
  </style>
 </defs>
 <g id="Camada_x0020_1">
  <metadata id="CorelCorpID_0Corel-Layer"/>
  <g id="_1962056099472">
   <path class="fil0" d="M18013.01 5721.02c-147.99,224.93 -401.46,355.6 -693.13,317.38 -336.7,-44.13 -553.17,-280.52 -676.37,-571.92 -13.97,55.64 -29.6,110.83 -47.75,165.31 -39.54,118.6 -96.54,232.67 -177.57,328.53 -158.85,191.33 -403.18,284.17 -649.25,249.12 -5.72,-0.81 -11.44,-1.72 -17.13,-2.71 -179.36,-30.81 -340.13,-116.34 -453.03,-261.3 -3.1,-3.98 -6.19,-7.95 -9.29,-11.96 -129.28,-58.42 -245.25,-140.56 -335.41,-253.24 -2.26,-2.82 -4.49,-5.66 -6.7,-8.51 -91.82,-119.07 -152.84,-259.69 -175.73,-408.33 -5.15,-30.78 -9.46,-61.64 -12.96,-92.63 -65.45,154.29 -151.53,299.3 -262.86,425.67 -111.54,126.6 -236.9,240.77 -378.44,333.09 -62.18,40.55 -124.29,81.2 -186.37,121.92 -7.12,10 -14.17,20.03 -21.05,30.17 -10.49,15.45 -21.64,30.34 -33.49,44.75 -170.93,207.77 -412.99,324.99 -682.59,324.99 -278.01,0 -546.85,-79.24 -748.76,-277.99 -19.72,-19.41 -37.91,-39.95 -54.82,-61.85 -60.94,-79.02 -109.63,-165.82 -152.56,-255.57 -16.82,-26.3 -36.96,-47.34 -63.45,-65.39 -145.45,-99.06 -259.07,-225.54 -340.5,-371.44 -84.8,126.7 -189.64,237.19 -318.99,319.51 -8.31,19 -16.85,37.91 -25.69,56.69 -75.9,161.35 -204.98,281.61 -364.16,359.03 -4.02,1.96 -8.04,3.87 -12.11,5.74 -139.25,63.98 -291.24,88.23 -443.65,75.3 -78.67,-6.69 -156.62,-20.54 -232.67,-41.57 -166.44,88.38 -356.2,118.09 -550.9,61.57 -97.34,-28.26 -190.6,-68.04 -281.29,-113.02 -108.36,-53.75 -211.43,-120.08 -305.59,-196.06 -33.46,-26.12 -65.74,-53.35 -96.66,-81.55 -23.93,35.41 -51.63,69.29 -83.64,101.33 -99.98,99.95 -221.26,175.62 -356.8,216.7 -69.14,20.96 -140.45,34.99 -212.18,43.35 -272.83,35.41 -545.9,-27.7 -726.37,-246.96 -57.79,-64.61 -104.65,-136.64 -138.4,-214.41 -58.48,134.55 -144.02,254.07 -270.27,343.12 -115.59,81.5 -246.57,136.38 -386.55,157.9 -112.58,17.32 -226.88,14.32 -338.58,-7.71 -255.92,-50.44 -484.39,-176.69 -611.61,-408.63 -19.97,22.34 -39.7,45 -58.69,68.15 -148.93,188.21 -363.02,266.75 -576.05,244.09 -50.5,46.45 -106.06,87.28 -166.63,120.56 -157.04,88.43 -332.55,112.81 -510.35,103.24 -199.43,-10.69 -388.59,-73.39 -544.62,-200.36 -27.25,-22.19 -54.07,-44.93 -80.34,-68.24 -290.19,12.38 -549.7,-126.43 -719.25,-365.96 -73.51,-94.69 -116.75,-203.57 -139.56,-321.43 -6.01,-31.09 -12.24,-62.15 -18.58,-93.19 -3.94,-15.28 -8.18,-31.68 -13.08,-46.86 -76.35,-122.92 -114.84,-262.5 -121.01,-407.98 -1.4,-32.94 -5.16,-65.92 -10.15,-98.52 -7.24,-47.53 -14.82,-94.95 -20.58,-142.71 -14.58,-106.84 -5.63,-213.22 19.95,-317.61l-2.11 -105.02c-53.75,46.95 -112.99,87.24 -180.76,117.67 -10.42,4.91 -20.6,10.48 -30.58,16.2 -17.12,9.83 -34.27,22.31 -50.59,33.46 -66.9,45.67 -138.3,83.72 -212.78,115.35 -93.89,43.38 -192.17,74.55 -292.66,89.86 1.96,15.81 3.6,31.68 4.94,47.59 36.51,345.03 -56.79,680.42 -279.67,948.66 -5.03,6.04 -13.69,16.8 -18.01,24.81 -49.4,216.16 -157.37,410.37 -338.57,541.46 -333.66,269.94 -757.65,220.87 -1041.09,-75.54 -206.64,-124.94 -341.94,-324.32 -390.27,-560.96 -23.59,-115.46 -34.33,-232.94 -34.33,-350.76 0,-35.01 -2.36,-70.47 -8.97,-104.87 -12.74,-66.36 -25.75,-132.68 -40.8,-198.55 -2,-8.76 -3.79,-17.54 -5.42,-26.38 -32.42,-177.88 -68.27,-360.69 -68.27,-542.02 0,-74.32 -1.11,-148.66 -3.09,-222.95 -3.82,-142.86 15.16,-284.42 61.15,-419.62 4.44,-78.31 21.86,-155.76 50.5,-228.86 -93.34,-142.51 -147.12,-306.21 -147.12,-484.27l0 -38.58c0,-18.19 0.81,-36.3 2.44,-54.43 3.87,-43.08 11.5,-100.05 11.01,-145.4 -36.54,-168.08 -57.11,-339.38 -58.57,-511.45l-30.96 -519.01c-0.72,-12.03 -1.07,-24.08 -1.07,-36.14 0,-85.04 -2.08,-170.13 -5.57,-255.11 -23.68,-352.77 -8.66,-751.91 312.79,-967.78 127.71,-147.26 308.82,-236.09 509.19,-236.09 27.72,0 55.6,-1.49 83.29,-2.73 75.77,-3.36 151.47,-1.1 227.07,4.2 176.66,12.42 354.47,40.31 510.31,126.72 20.67,2.24 41.42,3.7 62.2,4.5 38.39,1.46 76.87,1.73 115.26,0.12 54.87,-2.35 109.78,-3.87 164.69,-3.87 90.07,0 176.9,10.86 260.44,38.71 170.13,8.64 328.68,79.03 455.65,194.53 20.75,2.76 41.5,5.57 62.23,8.46 145.77,20.36 281.73,76.67 401.6,161.08 221.25,-396.6 626.26,-582.22 1086.73,-570.11 195.09,5.15 391.07,21.85 581.44,66.6 32.88,7.72 75.69,19.14 111,23.47 35.84,-6.47 82.03,-21.85 116.75,-32.82 325.41,-118.15 671.01,-117.93 963.5,82.41 89.11,37.9 169.62,91.65 239.93,158.53 12.36,-5.27 24.89,-10.3 37.57,-15.04 0.51,-0.35 1.01,-0.71 1.52,-1.05 31.69,-22.45 62.12,-47.01 92.21,-71.58 25.78,-21.05 50.79,-43.08 75.22,-65.69 98.26,-90.96 216.28,-157.12 344.12,-196.45 18.91,-5.81 38,-10.69 57.4,-14.64 193.96,-39.48 394.47,-54.7 585.82,8.48 112.41,37.12 219.77,88.31 312.55,162.51 1.55,0.15 3.12,0.29 4.67,0.44 90.61,8.85 177.26,21.7 261.16,48.71l79.68 -5.13c12.95,-0.83 25.9,-1.25 38.89,-1.25 242.23,0 484.63,45.61 681.74,195.65 86.52,65.84 168.43,137.39 238.7,220.75 25.04,29.72 48.87,60.36 71.7,91.74 154.86,-197.14 334.71,-385.26 545.55,-517.68 279.49,-175.5 612.84,-226.98 893.65,-72.57 1.22,-0.27 2.42,-0.54 3.64,-0.81l108.76 -23.8c174.09,-40.79 353.76,-34.72 525.62,14.18 275.74,78.49 461.81,287.53 583.5,537.53 2.11,4.34 4.17,8.7 6.17,13.08 12.29,26.86 26.47,53.53 43.14,77.96 3.94,5.78 7.9,11.56 11.86,17.33 6.35,-5.66 12.74,-11.28 19.17,-16.86 72.33,-62.76 146.1,-123.8 219.69,-185.06 9.8,-9.43 19.2,-19.72 26.94,-30.79 70.75,-101.06 157.13,-189.64 254.31,-265.39 293.55,-239.57 657.58,-333.98 1023.66,-211.05 6.69,2.26 13.36,4.62 19.97,7.09 115.53,43.33 240.65,81.49 363.65,95.07 241.03,26.58 478.04,97.15 665.72,257.22 40.26,34.33 79.05,70.26 116.22,107.73 76.68,-113.08 178.72,-206.08 302.06,-271.85 3.12,-1.67 6.25,-3.31 9.38,-4.91 107.11,-54.75 222.06,-92.34 340.9,-110.97 9.2,-1.45 18.41,-2.68 27.66,-3.69 108.32,-11.93 217.78,-13.54 325.68,-0.2 185.83,-54.19 380.28,-72.39 562.66,-4.38 135.11,18.07 258.92,69.25 364.45,147.98 181.56,-185.8 439.86,-256.16 704.96,-256.16 54.78,0 109.54,1.34 164.27,3.48 58.59,0.87 119.28,-4.76 177.46,-10.46 273.12,-26.92 536.02,53.92 745.43,231.63 69.43,58.9 125.5,124.85 169.75,196.07 52.2,-75.66 110.31,-147.12 178.39,-208.21 14.85,-13.33 30.28,-25.84 46.36,-37.64 290.6,-213.17 647.85,-215.42 978.09,-104.95 24.75,8.28 78.45,23.97 105.53,20.07 125.75,-18.14 251.71,-33.49 379.07,-29 176.84,6.2 341.49,65.3 493.26,153.56 132.62,77.12 249.87,175.61 343.09,296.85 177.64,-180.89 426.18,-279.95 708.53,-279.95l52.85 0c0.63,-0.44 1.28,-0.89 1.91,-1.33 90.04,-62.29 188.36,-111.83 292.01,-147.08 3.6,-1.23 7.23,-2.42 10.87,-3.58 130.36,-41.63 266.81,-51.86 397.76,-26.03 120.45,-63.59 251.1,-104.75 386,-126.96 174.6,-28.71 351.85,-19.29 523.63,21.98 215.39,51.75 410.09,158.37 544.4,335.98 218.87,-168.65 499.01,-247.04 803.4,-239.04 195.11,5.15 391.09,21.85 581.45,66.6 32.87,7.72 75.69,19.14 111,23.47 35.82,-6.47 82.03,-21.85 116.74,-32.82 325.41,-118.15 671.02,-117.93 963.5,82.41 29.92,12.71 58.87,27.22 86.79,43.42 0.66,-0.36 1.34,-0.71 2,-1.05 107.11,-54.75 222.06,-92.34 340.9,-110.97 9.2,-1.45 18.41,-2.68 27.66,-3.69 108.32,-11.93 217.78,-13.54 325.68,-0.2 185.83,-54.19 380.28,-72.39 562.66,-4.38 135.11,18.07 258.92,69.25 364.45,147.98 181.56,-185.8 439.86,-256.16 704.96,-256.16 54.78,0 109.54,1.34 164.27,3.48 58.59,0.87 119.28,-4.76 177.46,-10.46 273.12,-26.92 536.02,53.92 745.43,231.63 75.27,63.87 134.88,136.05 180.71,214.2 96.6,-96.47 201.31,-184.09 315,-255.51 279.5,-175.5 612.86,-226.98 893.67,-72.57 1.22,-0.27 2.42,-0.54 3.64,-0.81l108.76 -23.8c174.09,-40.79 353.76,-34.72 525.62,14.18 275.72,78.49 461.81,287.53 583.5,537.53 2.11,4.34 4.16,8.7 6.17,13.08 12.29,26.86 26.47,53.53 43.14,77.96 31.68,46.44 63.87,92.51 95.34,139.11 4.11,6.1 8.15,12.27 12.03,18.52 87.92,141.04 163.89,293.62 193.18,458.41 22.01,38.83 41.56,78.91 57.95,120.67 51.45,126.3 66.93,263.84 46.95,398.71 -23.35,157.59 -100.07,290.22 -193.28,414.86 -1.6,15.76 -2.62,31.79 -1.67,44.24 0.33,3.99 0.62,7.98 0.84,11.99 4.49,72.54 5.41,145.18 -0.21,217.68 -17.51,284.53 -170.08,519.51 -406.23,655.26 7.39,8.15 14.74,16.34 22.04,24.57 4.2,4.71 8.31,9.5 12.35,14.36 232.39,278.88 369.63,606.55 396.88,969.15 24.03,319.96 -22.01,639.25 -162.64,929.56 -98.17,202.62 -234.68,382.52 -423.25,502.52 -8.31,19 -16.85,37.91 -25.69,56.69 -75.9,161.35 -204.98,281.61 -364.16,359.03 -4.02,1.96 -8.04,3.87 -12.11,5.74 -139.25,63.98 -291.24,88.23 -443.65,75.3 -78.69,-6.69 -156.64,-20.54 -232.67,-41.57 -166.44,88.38 -356.2,118.09 -550.92,61.57 -97.33,-28.26 -190.59,-68.04 -281.28,-113.02 -108.36,-53.75 -211.43,-120.08 -305.59,-196.06 -125.74,-98.22 -234.69,-211.5 -318.32,-336.42 -7.24,6.85 -14.64,13.6 -22.19,20.19 -135.21,279.64 -415.63,451.43 -744.68,408.34 -336.7,-44.13 -553.17,-280.52 -676.37,-571.92 -13.97,55.64 -29.6,110.83 -47.75,165.31 -39.54,118.6 -96.54,232.67 -177.57,328.53 -158.85,191.33 -403.18,284.17 -649.25,249.12 -5.72,-0.81 -11.44,-1.72 -17.13,-2.71 -179.36,-30.81 -340.13,-116.34 -453.03,-261.3 -3.1,-3.98 -6.19,-7.95 -9.29,-11.96 -120.92,-54.63 -230.17,-130.02 -317.58,-231.74 -30.91,46.57 -66.04,90.61 -103.98,132.68 -24.56,27.21 -48.93,54.81 -72.18,83.16 -148.93,188.21 -363.04,266.75 -576.06,244.09 -50.5,46.45 -106.05,87.28 -166.62,120.56 -157.04,88.43 -332.56,112.81 -510.35,103.24 -199.44,-10.69 -388.59,-73.39 -544.62,-200.36 -27.27,-22.19 -54.07,-44.93 -80.34,-68.24 -179.1,7.63 -346.52,-42.31 -488.31,-137.98 -149.09,161.29 -358.19,258.65 -608.9,258.65 -122.76,0 -246.98,-0.24 -368.35,-20.52 -134.64,-20.75 -259.6,-71.94 -362.04,-152.92 -53.15,36.89 -109.55,69.1 -167.91,98.52 -262.62,132.44 -552.44,102.76 -802.62,-41.59 -129.5,-74.7 -254.22,-162.49 -346.91,-281.47 -32.4,-40.76 -62.15,-83.63 -88.76,-128.31 -43.59,-25.79 -84.02,-55.41 -121.25,-88.37 -56.39,139.89 -144.4,262.74 -255.95,367.13 -219.47,205.33 -519.36,285.3 -805.01,174.49 -3.3,-1.26 -6.58,-2.56 -9.83,-3.9 -202.95,-82.77 -363.83,-234.15 -442.07,-440.99 -1.69,-4.44 -3.31,-8.91 -4.89,-13.4 -4.53,-12.9 -8.97,-25.84 -13.28,-38.8 -38.05,-28.32 -72.85,-60.21 -104.09,-95.16 -94.36,304.34 -294.93,555.78 -624.62,638.79 -166.44,45.47 -341.46,34.31 -502.88,-25.31 -217.15,-76.85 -384.61,-238.18 -471.66,-451.51 -1.79,-4.38 -3.54,-8.78 -5.27,-13.19zm-8951.95 -1385.43c37.1,-49.27 78.46,-95.43 124.94,-137.44 3,-2.73 6.05,-5.42 9.12,-8.09 27.75,-24.09 56.24,-46.86 85.46,-68 -44.28,-29.63 -86.41,-63.22 -126.24,-100.08 -43.74,55.48 -91.08,107.81 -141.72,156.95 17.38,51.19 33.95,103.58 48.42,156.65z"/>
   <path class="fil1" d="M29843.34 1740.41c29.36,-90.72 68.22,-178.09 118.05,-260.63 74.74,-123.75 157.28,-243.03 243.14,-354.14 137.32,-185.58 309.78,-385.68 506.93,-509.49 176.1,-110.59 391.66,-159.17 558.59,-6.17 14.47,12.29 28.49,21.71 48.08,18.99 47.72,-6.63 99.6,-15.16 145.75,-29.35 5.62,-1.73 10.45,-3 16.19,-4.26l112.02 -24.51c108.32,-25.87 218.05,-21.65 325.03,8.81 159.21,45.32 261.28,183.32 330.45,325.42 0.74,1.49 1.34,2.79 2.03,4.32 21.82,47.67 47.28,94.36 76.87,137.69 31.3,45.89 63.13,91.44 94.23,137.48 1.46,2.14 2.65,3.98 4.02,6.17 61.6,98.79 123.71,215.73 140.31,328.44 3.09,18.52 9.68,55.12 18.34,73.13 23.56,36 44.66,73.67 60.2,113.84 24.84,59.81 31.8,124.9 22.31,188.93 -13.19,89.02 -76.2,178.79 -129.97,248.89 -31.63,41.24 -53.63,85.82 -60.06,137.66 -6.5,52.38 -12.26,111.96 -7.95,164.74 0.12,1.42 0.2,2.62 0.29,4.02 3.37,54.64 4.4,110.29 -0.06,164.92 -9.92,179.84 -118.96,310.62 -286.88,370.08 -134.73,52.43 -281.58,55.98 -398.77,-39.42 -73.93,-60.2 -130.15,-136.49 -168.92,-218.49 -14.54,-29.06 -28.37,-58.59 -41.21,-88.53 -49.61,46.41 -105.92,84.14 -170.11,107.55 49.46,130.47 302.37,386.09 377.99,459.7 56.28,54.79 114.46,107.58 174.21,158.56 82.23,70.1 158.88,146.07 230.58,226.85 1.48,1.67 2.7,3.09 4.11,4.79 178.62,214.35 283.32,462.02 304.24,740.42 18.67,248.59 -13.87,496.95 -123.3,722.82 -73.76,152.28 -179.1,296.27 -335.59,370.28 -19.74,11.01 -44.25,27.48 -52.91,48.45 -19.92,48.33 -40.14,97.31 -62.4,144.64 -36.29,77.11 -99.54,130.71 -175.02,167.42 -1.4,0.68 -2.62,1.26 -4.05,1.91 -75.74,34.81 -157.69,46.83 -240.47,39.8 -64.38,-5.47 -127.94,-17.87 -189.54,-37.42 -1.49,-0.45 -2.74,-0.87 -4.2,-1.39 -45.47,-15.51 -90.19,-33.68 -133.25,-55.06 -1.54,1.6 -2.91,2.98 -4.5,4.56 -100.4,98.71 -230.43,165.43 -373.52,123.89 -73.46,-21.32 -145.83,-52.97 -214.26,-86.91 -84.41,-41.86 -163.82,-93.71 -233.76,-150.45 -250.44,-194.65 -427.28,-467 -303.86,-787.91 47.07,-122.37 112.2,-253.96 210.81,-343.1 1.04,-0.93 1.94,-1.75 3.03,-2.68 76.2,-66.14 166.62,-126.69 271.51,-126.69 127.26,0 238.97,59.41 295.48,175.56 17.07,35.1 32.99,70.62 49.6,105.91 1.23,2.62 3,6.32 4.79,9.26 7.77,5.13 18.58,10.27 26.08,13.9 15.82,7.68 34.71,10.98 48.53,12.39 30.28,2.5 38.32,-4.1 53.98,-30.52 33.47,-56.43 45.67,-114.7 38.5,-179.69 -2.32,-15.07 -5.72,-36.77 -10.01,-59.53 -56.88,-0.14 -114.4,-12.95 -170.05,-35.67 -121.6,-49.61 -220.69,-139.62 -234.04,-276.84 -3.07,-31.35 -9.2,-62.21 -18.44,-92.31 -0.51,-1.63 -0.92,-3.03 -1.39,-4.64 -9.28,-32.94 -21.44,-64.93 -35.32,-96.17 -1.26,-2.83 -2.29,-5.25 -3.42,-8.15 -4.61,-11.73 -11.34,-28.92 -18.76,-45.31 -12.09,-0.48 -23.9,-0.57 -34.33,-0.57 -137.29,0 -251.19,-80.89 -340.13,-178.36 -96.24,-105.5 -159.21,-232.04 -195.11,-369.68 -25.96,-99.41 -51.83,-198.86 -77.36,-298.37 -14.97,-58.32 -31.06,-119.49 -52.07,-175.94 -20.49,-55.08 -36.59,-111.56 -51.37,-168.38 -15.78,-60.66 -26.39,-123.35 -32.78,-187.05 -12.26,102.07 -18.72,208.15 -5.51,280.55 14.91,81.74 29.72,172.42 29.72,255.64l0 100.01c1.29,14.91 5.06,32.3 8.03,46.74 15.73,76.8 11.37,154.54 -9.43,225.28 -5.21,19.45 -4.82,39.45 -1.46,59.2 0.24,1.42 0.44,2.62 0.65,4.04 15.06,101.02 -7.06,201.25 -48.17,289.2 -18.64,42.11 -25.91,85.88 -24.65,131.88 2.42,87.63 -3.33,175.61 -20.24,261.7 -7.56,38.38 4.89,93.7 15.57,130.32 68,233.37 -24.78,581.69 -95.1,810.31 -23.11,107.78 -69.52,213.34 -164.41,276.58 -1.25,0.83 -2.3,1.52 -3.57,2.33 -10.27,6.53 -21.38,13.48 -32.28,20.66 -44.52,170.37 -174.54,287.81 -357.27,263.87 -213.14,-27.92 -324.58,-222.65 -386.15,-407.94 -22.33,-67.12 -86.61,-260.71 -130.98,-320.17 -76.73,-65.17 -128.89,-150.55 -161.53,-245.44 -26.29,-76.41 -48.44,-154.08 -67.2,-232.67 -0.77,-3.27 -1.39,-6.08 -2,-9.4 -9,-47.64 -30.6,-161.92 -53.99,-212.74 -68.61,-66.43 -106.48,-159.83 -130.32,-250.86 -8.13,-31.06 -24.35,-92.55 -41.32,-119.96 -3.6,-5.83 -7.15,-11.67 -10.63,-17.56 -18.1,158.28 -47.88,335.18 -104.31,482.2 27.52,84.48 51.43,170.38 69.52,257.19 28.35,136.08 16.02,278.61 -13.72,413.36 -22.63,102.46 -45.79,204.83 -68.31,307.31 -16.49,75.01 -35.37,150.45 -59.67,223.37 -23.73,71.22 -57.32,142.09 -103.89,196.64 -69.89,85.13 -173.29,123.8 -281.92,108.32 -2,-0.29 -3.7,-0.56 -5.69,-0.89 -79.08,-13.6 -152.24,-46.47 -202.3,-111.15 -14.51,-18.23 -28.55,-36.86 -42.32,-55.65 -5.5,-7.5 -9.76,-14.2 -14.24,-22.33 -8.39,-15.3 -30.61,-24.75 -45.89,-30.2 -93.08,-33.14 -182.91,-82.95 -245.52,-161.18 -0.8,-0.99 -1.48,-1.84 -2.23,-2.83 -51.9,-67.27 -84.71,-145.27 -96.59,-225.21 -10.92,-64.22 -16.89,-129.08 -19.26,-194.16 -1.6,-44.04 -15.84,-90.69 -31.66,-131.48 -30.55,-78.84 -55.54,-165.46 -55.54,-250.61 0,-57.08 5.01,-114.6 18.19,-170.22 7.26,-34.12 15.19,-68.13 23.35,-102.06 -2,-20.94 -12.66,-54.3 -18.38,-71.79 -65.44,-201.05 -57.8,-406.44 74.31,-576.92 11.88,-17.63 33.64,-52.44 38.85,-72.89 -7.66,-29.65 -24.27,-83.43 -40.88,-92.1 -5.77,-3.01 -10.54,-5.78 -16.01,-9.31 -87.27,-56.31 -144.46,-142.57 -144.46,-248.29 0,-11.89 -0.2,-34.09 -3.27,-47.23 -49.79,-86.65 -50.83,-184.79 -21.41,-278.39 -7.78,-19.27 -12.21,-39.3 -13.49,-60.86 -4.35,-40.1 -10.37,-80.72 -15.37,-120.76 -13.76,-109.9 -23.53,-220.78 -32.81,-331.13 -0.81,-9.61 -1.63,-19.23 -2.42,-28.85 -1.05,50.32 -4.94,100.67 -12.71,150.19 -0.48,3.15 -0.98,5.84 -1.61,8.99 -36.65,180.02 -141.49,349.35 -347.08,349.35 -4.88,0 -9.03,-0.14 -13.9,-0.48 -110.71,-7.62 -213.88,-49.46 -283.93,-138.37 -0.83,-1.05 -1.52,-1.96 -2.32,-3.03 -39.61,-52.28 -70.63,-109.92 -94.47,-170.96 -6.41,-16.46 -13.04,-33.28 -20.18,-49.88 -147.96,-1.22 -337.77,-13.6 -460.3,-93.14 -17.48,-11.35 -60.86,-38.02 -82.01,-40.97 -10.07,-1.42 -19.59,-1.39 -29.06,2.6 -26.8,11.28 -32.9,27.64 -37.16,56.24 -12.53,83.69 -21.95,168.09 -26.74,252.62 -3.6,63.27 -3.98,126.66 -0.08,189.93 0.72,11.65 1.99,29.69 4.01,48.96 130.71,-85.58 275.77,-135.39 433.07,-133.03 174.27,2.62 322.7,80.16 414.85,229.32 70.07,113.39 111.13,242.49 96.23,376.71 -8.48,76.31 -15.42,152.81 -21.43,229.36 -6.38,81.14 -17.38,162.01 -32.82,241.92 -0.44,2.26 -0.84,4.19 -1.36,6.43 -37.27,163.94 -114.31,339.32 -289.78,391.99 -129.64,38.92 -252.56,-8.15 -356.44,-82.5 -68.19,-2.03 -165.07,-0.95 -214.08,15.6 -4.13,17.26 -7.47,35.65 -10.13,49.57 -10,52.04 -10,106.48 -4.2,159.02 8.67,78.64 19.8,136.75 105.5,143.39 73.33,5.69 144.74,-1.82 212.96,-30.23 20.7,-8.63 71.97,-31.92 90.1,-50 50.71,-90.96 128.16,-160.43 234.56,-178.68 31.35,-5.38 62.85,-11.01 93.89,-17.92 43.95,-9.79 89.27,-14.76 134.29,-14.76 49.91,0 100.04,7.39 147.87,21.56 2.89,0.86 5.32,1.64 8.16,2.62 155.46,53.3 246.9,179.69 272.94,339.62 20.82,127.97 9.47,255.23 -43.62,374.07 -22.66,50.76 -44.15,106.89 -53.77,161.83 -9.06,51.55 -18.97,104.06 -32.13,154.74 -0.6,2.35 -1.16,4.34 -1.84,6.66 -21.31,71.88 -69.08,136.58 -118.75,191.61 -30.85,34.19 -61.24,68.96 -87.47,101.11 -100.1,128.65 -254.81,117.52 -375.25,32.7 -27.33,18.96 -63.25,58.21 -80.49,78.37 -46.34,62.74 -102.64,117.71 -167.94,153.1 -87.45,49.94 -193.36,58.1 -291.95,52.82 -113.12,-6.07 -221.91,-37.76 -310.88,-110.16 -50.15,-40.82 -98.59,-83.88 -144.32,-129.62 -5.62,-5.62 -10.13,-10.68 -15.1,-16.91 -23.73,-29.75 -119.84,-20.3 -150.21,-16.1 -176.86,24.51 -323.09,-56.57 -420.72,-199.59 -36.92,-44.61 -55.8,-98.86 -66.93,-156.38 -6.97,-36.02 -14.2,-71.99 -21.56,-107.93 -10.63,-40.19 -30.38,-114.24 -49.78,-148.08 -49.27,-68.31 -70.78,-148.66 -74.35,-232.34 -2.02,-47.59 -7.21,-95.23 -14.39,-142.33 -6.76,-44.36 -14.03,-89.14 -19.3,-133.72 -8.54,-59.16 -1.39,-118.75 13.43,-176.39 0.35,-1.34 0.65,-2.47 1.02,-3.82 6.82,-24.54 9.15,-50.43 9.18,-71.79l-6.61 -328.47c-0.02,-1.42 -0.03,-2.62 -0.03,-4.05 0,-61.75 2.26,-123.54 7.27,-185.09 4.08,-49.94 -4.04,-109.78 -11.58,-159.12 -6.75,-44.16 -13.58,-90.76 -19.15,-137.95 -5.38,75.98 -24.39,152.44 -46.9,221.74 -73.1,224.98 -118.69,483.82 -55.56,716.68 0.86,3.18 1.52,5.87 2.23,9.06 11.82,53.15 25.28,106.12 36.95,155.36 21.17,81.98 36.69,165.85 49.36,249.55 13.78,91.03 23.76,182.59 28.44,274.56 4.91,96.12 -1.01,193.16 -24.27,286.74 -45.31,231.18 -193.12,397.64 -440.1,397.64 -97.85,0 -211.97,0.35 -304.3,-15.42 -102.15,-15.24 -196.93,-62.14 -246.54,-157.25 -1.66,-3.19 -3.01,-5.93 -4.49,-9.18 -11.17,-24.33 -18.75,-49.45 -23.44,-74.85 -51.09,23.38 -103.7,42.51 -154.74,53.65 -45.19,11.02 -90.37,22.04 -135.56,33.06 -4.28,1.04 -13.88,3.69 -17.3,7.09 -54.79,54.82 -125.33,96.6 -194.16,131.33 -139.55,70.36 -287.34,44.72 -418.19,-30.78 -82.3,-47.47 -174.67,-108.02 -231.03,-181.13 -37.6,-47.02 -69.92,-98.41 -94.72,-153.31 -5.19,-11.52 -10.72,-23.16 -16.71,-34.5 -164.23,-48.63 -259.64,-187.23 -301.33,-350.24 -32.88,-128.56 -62.85,-257.88 -91.8,-387.37 -28.05,-125.44 -51.86,-253.08 -65.48,-380.95 -10.36,-97.57 -21.68,-195.03 -34.63,-292.3 -7.89,-59.31 -33.76,-236.45 -65.47,-293.92 -0.62,-0.57 -1.22,-1.14 -1.82,-1.72 -0.86,10.16 -1.91,20.27 -3.21,30.31 -4.64,35.93 -9.67,72 -17.59,107.4 -0.14,15.03 4.19,37.54 6.79,51.18 0.29,1.48 0.53,2.76 0.78,4.25 14.35,84.33 13.4,170.56 0.57,255 -10.72,70.57 -23.91,140.63 -38.14,210.56 -0.5,2.42 -0.96,4.5 -1.54,6.91 -20.45,85.15 -62.59,263.27 -52.94,350.42 13.14,118.84 25.24,270.27 -5.44,386.78 -0.39,1.45 -0.72,2.67 -1.13,4.08 -15.87,55.53 -33.11,110.92 -52.73,165.23 -0.83,2.27 -1.55,4.2 -2.45,6.46 -17.89,44.69 -31.86,93.94 -44.82,140.3 -30.87,110.2 -93.59,202.76 -176.74,280.55 -105.59,98.8 -242.73,146.8 -382.22,92.71 -1.17,-0.44 -2.15,-0.84 -3.31,-1.31 -98.34,-40.13 -178.21,-108.48 -216.4,-209.44 -0.59,-1.57 -1.08,-2.92 -1.64,-4.5 -16.49,-46.89 -31.33,-94.33 -43.68,-142.48 -3.12,-12.14 -6.46,-24.83 -10.22,-37.45 -131.46,-39.21 -215.92,-149.27 -224.99,-294.48 -4.64,-74.44 -4.65,-150.43 4.43,-224.56 3.79,-31.02 1.45,-62.08 -5.84,-92.45 -0.39,-1.58 -0.69,-2.94 -1.02,-4.53 -7.84,-36.3 -22.25,-70.72 -40.92,-102.73 -23.13,-39.64 -72.36,-113.78 -123.78,-120.82 -65.39,-8.94 -82.71,29.59 -103.05,88.01 -11.64,39.28 -17.01,86.71 -20.78,127.03 -8.51,91.7 -31,179.88 -72.3,262.46 -32.25,64.5 -70.06,126.81 -116.65,182.08 -30.6,36.32 -60.94,72.89 -92.01,108.82 -4.41,5.13 -6.32,12.78 -7.36,19.27 -0.3,1.87 -0.59,3.46 -0.95,5.33 -40.35,211.77 -142.09,419.45 -367.48,474.16 -89.09,25.34 -180.74,16.23 -262.41,-14.47 -109.61,-38 -190.8,-116.56 -234.57,-223.82 -31.77,-77.87 -48.17,-161.44 -56,-244.93 -8.04,-85.93 -8.55,-172.91 -3.9,-259.07 4.13,-75.99 6.32,-152.13 6.32,-228.25 0,-37.36 -3.21,-141.84 -21.11,-182.07 -218.99,-182.32 -220.55,-560.27 -204.44,-818.13 0.2,-2.86 0.39,-5.28 0.68,-8.16 17.39,-168.31 38.46,-341.08 73.97,-506.62 31.26,-145.72 59.66,-308.54 57.26,-458.03 -1.87,-116.1 -0.53,-237.97 14.98,-353.2 10.09,-74.82 23.73,-150.79 44.81,-223.37 17.35,-59.79 38.2,-118.68 60.44,-176.8 24.18,-63.24 36.86,-164.78 45.7,-231.88 17.8,-135.14 37.43,-271.26 63.66,-405.04 15.76,-80.39 35.53,-175.74 68.61,-250.82 53.42,-121.24 114.46,-239.01 181.31,-353.38 53.86,-92.16 123.99,-206.17 203.78,-277.75 5.19,-4.67 9.83,-8.42 15.46,-12.56 180.53,-132.43 408.57,-114.99 610.37,-47.47 92.63,30.97 193.9,50.91 291.64,36.83 98.56,-14.21 207.51,-28.61 307.13,-25.11 108.57,3.82 211.14,44.94 304.03,98.97 96.59,56.18 181.78,128.51 245.55,220.87 57.79,83.72 99.07,175.34 120.24,270.18 43.56,175.74 34.86,371.68 10.74,549.76 -18.52,136.73 -34.84,288.64 -27.15,426.73 5.19,93.02 24.63,182.26 61.22,267.95 38.5,90.15 78.28,188.32 101.09,283.75 0.32,1.33 0.63,2.68 0.95,4.01 14.86,-44.46 33.13,-87.9 53.84,-130.05 33.06,-67.23 53.08,-138.57 53.08,-213.79 0,-51.84 -1.02,-126.82 -15.36,-176.99 -0.38,-1.28 -0.68,-2.38 -1.02,-3.67 -11.34,-42.75 -23.41,-85.24 -34.99,-127.89 -13.66,-50.37 -18.78,-101.71 -19.15,-153.72 -6.17,-119.64 25.91,-257.83 58.51,-371.6 17.57,-61.34 35.56,-123.92 47.67,-186.58 0.26,-1.4 0.5,-2.6 0.8,-3.98 12.35,-57.61 25.81,-114.94 40.4,-172.01 0.33,-1.26 0.62,-2.35 0.95,-3.61 74.22,-269.17 282.77,-407.57 557.71,-407.57l90.37 0c69.65,0 128.56,-20.72 182.84,-64.4 4.01,-3.24 7.53,-5.87 11.76,-8.81 59.32,-41.01 123.87,-73.54 192.14,-96.79 1.26,-0.42 2.35,-0.77 3.63,-1.17 94.41,-30.14 193.69,-30.85 282.66,15.88 8.58,0.75 20.99,-0.38 28.08,-1.14 37.27,-4.07 76.11,-23.25 104.34,-40.34 94.51,-59.85 201.33,-95.51 311.29,-113.59 121.33,-19.97 244.09,-12.51 363.38,16.16 127.46,30.61 249.69,90.06 326.25,200.51 10.89,15.73 28.55,41.78 43,56.04 19.51,12.8 39.89,24.45 59.61,36.9 4.2,2.63 7.68,5.01 11.67,7.95 108.21,79.36 166.81,201.88 198.89,331.09 9.43,-28.94 20.19,-57.52 32.28,-85.69 137.5,-320.49 422.63,-447.69 760.01,-438.82 165.97,4.37 337.54,17.95 499.48,56 56.48,13.3 165.38,39.1 223.25,34.86 66.69,-4.89 161.48,-34.6 227.28,-54.85 205.99,-76.55 428.85,-93.8 615.57,40.65 12.63,9.09 26.8,17.59 41.26,23.68 55.44,20.3 103.74,52.58 145.57,94.36 2.88,2.88 5.27,5.41 7.98,8.46 40.95,45.91 69.86,101.47 89.77,162.31 0.29,-0.75 0.57,-1.48 0.89,-2.18 0.63,-1.57 1.2,-2.89 1.88,-4.44 41.66,-94.68 108.77,-170.62 200.21,-219.39 1.11,-0.59 2.06,-1.07 3.18,-1.64 69.04,-35.29 142.74,-59.49 219.39,-71.52 3.24,-0.5 5.98,-0.87 9.24,-1.22 102.75,-11.32 210.12,-10.95 311.38,13.57 136.11,-49.79 306.57,-93.38 430.31,-22.93 140.6,2.51 262.12,72.26 339.56,206.22 36.6,63.3 70.48,130.02 104.42,194.82 52.71,100.79 106.95,200.83 160.88,300.99 18.69,34.69 37.34,69.43 56.01,104.16 2.71,-18.41 5.93,-36.74 9.73,-54.97 11.46,-55.05 27.3,-147.93 14.27,-203.85 -19.36,-83.05 -31.74,-167.69 -31.74,-253.12 0,-69.61 16.76,-137 53.33,-196.61 98.41,-160.39 291.05,-198.58 465.32,-198.58 52.26,0 104.54,1.42 152.75,3.33 75.12,1.48 153.96,-4.94 228.64,-12.29 164.5,-16.2 317.79,30.41 443.94,137.47 166.62,141.4 182.14,363.28 149.23,564.92 -21.14,129.55 -54.31,320.8 -48.27,451.89 1.55,33.43 2.77,66.87 3.7,100.31zm-3290.93 64.55c-5.86,84.12 -7.15,175.79 7.81,241.68 6.52,28.74 12.53,57.79 17.8,87.01 -3.25,-39.49 -6.56,-79 -10,-118.5 -6.07,-69.97 -11.34,-140.04 -15.61,-210.19zm-2660.55 -10.34c-3.34,10.01 -6.82,20.01 -10.42,29.98 -14.2,48.74 -30.9,97.24 -46.18,141.43 -24.84,77.14 -55.36,152.38 -89.05,226.05 -15.84,34.6 -30.17,76.84 -30.17,115.35 0,66.22 -3.31,132.39 -9.77,198.3 -0.15,1.54 -0.3,2.83 -0.48,4.35 -10.21,85.1 -39.16,165.66 -84.89,238.15 -132.85,210.63 -374.42,265.24 -608.36,256.4 -172.78,-0.33 -392.38,-22.4 -501.84,-174.54 -14.12,-19.63 -26.06,-40.25 -35.94,-61.63 1.54,10.54 3.21,21.06 5.01,31.6 15.27,89.05 43.85,233.17 37.72,322.53 -3.21,46.44 -10.06,92.57 -22.31,133.84 -64.43,232.39 -45.94,545.74 -20.28,782.78 4.61,42.45 20.84,160.1 46.16,230.78 1.78,-3.01 3.36,-5.84 4.67,-8.28 43.33,-99.03 -12.17,-438.38 -30.9,-538.1 -36.59,-194.82 -52.73,-445.98 123.9,-581.6 52.91,-40.61 115.14,-63.24 181.1,-70.12 86.03,-10.72 175.23,-10.69 261.67,-6.56 60.15,2.86 124.46,-0.27 182.82,-16.22 107.55,-29.41 219.11,-27.69 327.08,-1.45 115.25,28.02 216.83,85.46 297.64,172.31 40.59,43.65 65.65,93.59 79.33,146.73 -0.48,-19.47 -0.45,-38.68 0.18,-57.47 1.57,-47.65 2.76,-96.76 0.18,-144.38 -1.33,-24.38 -4.34,-49.18 -10.42,-72.83 -0.41,-1.55 -0.74,-2.88 -1.1,-4.43 -15.01,-64.2 -54.82,-149.42 -81.64,-209.89 -62.34,-140.62 -91.21,-289.83 -91.21,-443.54 0,-150.21 30.85,-300.32 119.31,-424.32 18.19,-28.17 31,-58.15 25.49,-92.19 -6.63,-40.86 -12.39,-81.91 -17.32,-123.03zm-12061.43 -127.14c27.69,-102.03 64.76,-201.01 114.4,-292.24 1.25,-2.29 2.35,-4.23 3.67,-6.47 55.09,-92.92 131.04,-173.12 212.27,-243.62 73.18,-63.48 147.86,-125.14 222.28,-187.13 33.7,-30.9 64.41,-64.83 90.64,-102.31 48.53,-69.32 108.3,-129.49 175.17,-181.1 186.43,-153.61 408.12,-222.5 642.46,-143.81 2.36,0.8 4.35,1.51 6.67,2.36 147.47,55.32 304.48,101.11 461.43,118.41 156.2,17.23 325.23,58.63 447.49,162.89 79.3,67.65 150.99,142.59 214,225.67 142.03,187.34 234.84,398.31 265.36,631.73 0.63,4.94 1.04,9.2 1.34,14.18 0.9,15.07 3.04,44.57 8.31,60.45 0.77,1.2 1.51,2.45 2.3,3.76 90.75,153.01 102.9,335.96 81.95,508.91 -9.56,78.91 -26.88,207.08 -18.43,285.84 0.15,1.39 0.27,2.57 0.39,3.96 1.52,17.26 4.89,50.38 10.72,64.73 16.71,32.87 31.51,66.37 46.47,100.04 0.75,1.67 1.37,3.12 2.06,4.82 42.64,103.09 67.17,211.26 67.17,323.1 0,152.63 -51.74,292.64 -135.41,418.66 -5.63,26.49 -2.62,78.11 -0.8,101.11 9.14,115.89 17.06,231.83 19.35,348.08 3.22,164.12 8.85,469.95 -68.04,617.66 -31.14,59.81 -70.15,135.12 -121.64,179.24 -22.83,19.56 -45.43,37.82 -71.47,53.05 -2.92,1.69 -5.63,3.21 -8.4,4.65 -27.25,27.22 -61.61,120.83 -72.62,153.76 -52.2,156.06 -128.03,306.96 -237.36,431.06 -87.24,99.01 -185.14,189.45 -295.88,261.67 -68.99,45 -137.92,90.13 -206.81,135.3 -13.51,8.85 -43.06,28.7 -52.79,41.51 -20.54,28.97 -41.65,57.59 -61.6,86.98 -3.66,5.39 -7,9.86 -11.16,14.91 -94.06,114.36 -221.55,177.4 -370.07,177.4 -169.1,0 -340.83,-39.63 -464.9,-161.73 -6.87,-6.79 -12.35,-12.96 -18.25,-20.61 -46.19,-59.88 -83.63,-130.8 -115.7,-199.44 -48.6,-84.44 -112.22,-153.85 -192.94,-208.82 -172.88,-117.76 -270.69,-292.24 -304.16,-496.76 -17.01,-76.05 -21.31,-153.69 -12.11,-231.14 5.78,-48.66 -1.57,-109.92 -8.96,-158.04 -0.69,-4.46 -1.16,-8.25 -1.55,-12.74 -5.44,-60.5 -17.13,-122.41 -38.58,-179.4 -29.72,-79.03 -51.55,-161.08 -58.3,-245.41 -3.25,-26.18 -12.72,-84.85 -26.79,-113.42 -225.49,-43.3 -271.35,-320.41 -283.46,-513.11 -0.11,-1.57 -0.17,-2.91 -0.24,-4.46 -4.67,-114.51 -0.57,-229.5 14.92,-343.07 12.71,-93.07 29.66,-188.09 58.13,-277.8 31.11,-117.07 34,-243.17 24.42,-363.25 -10.57,-132.58 -13.81,-266.94 -5.74,-400.05 -6.72,9.11 -13.43,17.96 -20,26.53 -31.63,41.24 -53.63,85.82 -60.06,137.66 -6.5,52.38 -12.26,111.96 -7.95,164.74 0.12,1.42 0.2,2.62 0.29,4.02 3.37,54.64 4.4,110.29 -0.05,164.92 -9.94,179.84 -118.98,310.62 -286.88,370.08 -134.74,52.43 -281.59,55.98 -398.78,-39.42 -73.93,-60.2 -130.15,-136.49 -168.92,-218.49 -14.54,-29.06 -28.37,-58.59 -41.21,-88.53 -49.61,46.41 -105.92,84.14 -170.11,107.55 49.46,130.47 302.37,386.09 377.99,459.7 56.28,54.79 114.46,107.58 174.22,158.56 82.21,70.1 158.86,146.07 230.57,226.85 1.48,1.67 2.7,3.09 4.13,4.79 178.6,214.35 283.31,462.02 304.22,740.42 18.69,248.59 -13.87,496.95 -123.29,722.82 -73.78,152.28 -179.1,296.27 -335.6,370.28 -19.74,11.01 -44.25,27.48 -52.91,48.45 -19.92,48.33 -40.14,97.31 -62.4,144.64 -36.29,77.11 -99.54,130.71 -175.02,167.42 -1.4,0.68 -2.62,1.26 -4.05,1.91 -75.74,34.81 -157.69,46.83 -240.47,39.8 -64.38,-5.47 -127.94,-17.87 -189.54,-37.42 -1.49,-0.45 -2.74,-0.87 -4.2,-1.39 -45.47,-15.51 -90.19,-33.68 -133.25,-55.06 -1.54,1.6 -2.91,2.98 -4.5,4.56 -100.4,98.71 -230.43,165.43 -373.52,123.89 -73.46,-21.32 -145.83,-52.97 -214.26,-86.91 -84.39,-41.86 -163.82,-93.71 -233.76,-150.45 -250.44,-194.65 -427.28,-467 -303.86,-787.91 47.07,-122.37 112.2,-253.96 210.81,-343.1 1.04,-0.93 1.96,-1.75 3.03,-2.68 76.2,-66.14 166.62,-126.69 271.51,-126.69 127.26,0 238.97,59.41 295.48,175.56 17.07,35.1 32.99,70.62 49.61,105.91 1.22,2.62 2.98,6.32 4.79,9.26 7.75,5.13 18.58,10.27 26.06,13.9 15.82,7.68 34.72,10.98 48.53,12.39 30.28,2.5 38.32,-4.1 53.98,-30.52 33.47,-56.43 45.67,-114.7 38.5,-179.69 -2.3,-15.07 -5.72,-36.77 -10.01,-59.53 -56.87,-0.14 -114.4,-12.95 -170.05,-35.67 -121.6,-49.61 -220.69,-139.62 -234.04,-276.84 -3.07,-31.35 -9.2,-62.21 -18.44,-92.31 -0.51,-1.63 -0.92,-3.03 -1.39,-4.64 -9.28,-32.94 -21.43,-64.93 -35.32,-96.17 -1.26,-2.83 -2.27,-5.25 -3.4,-8.15 -4.62,-11.73 -11.35,-28.92 -18.78,-45.31 -12.09,-0.48 -23.9,-0.57 -34.33,-0.57 -137.29,0 -251.19,-80.89 -340.13,-178.36 -96.24,-105.5 -159.21,-232.04 -195.11,-369.68 -22.34,-85.58 -44.63,-171.21 -66.69,-256.88 -8.37,43.82 -17.51,87.47 -27.49,130.93 -32.55,141.78 -77.65,284.08 -143.39,414.15 -0.74,1.43 -1.36,2.62 -2.11,4.04 -101.24,189.58 -247.73,337.45 -423.46,450.46 0.21,0.48 0.44,0.98 0.66,1.46 29.42,65.2 56.49,131.42 83.45,197.65 1.22,3.01 2.21,5.62 3.3,8.7 43.03,121.45 95.39,282.93 95.39,412.53 0,32.99 -0.72,82.77 5.86,115.06 0.21,1.07 0.44,2.2 0.66,3.37 17.41,12.3 34.44,25.36 50.94,38.18 1.26,0.99 2.33,1.84 3.58,2.85 68.63,55.92 111.59,134.02 137.24,217.62 23.25,75.66 34.28,154.45 34.28,233.55 0,131.13 -9.44,299.35 -107.76,397.67 -52.77,52.77 -116.31,93.86 -188.01,115.59 -48.36,14.67 -97.91,23.68 -144.37,28.98 -133.95,17.83 -281.4,3.88 -369.31,-108.68 -56.79,-61.09 -94.81,-134.7 -101.44,-219.02 -53.42,-33.14 -90.4,-84.66 -113.54,-144.41 -192.32,13.04 -324.69,-114.87 -396.82,-285.73 -12.08,31.36 -27.39,60.69 -45.94,85.78 -21.4,30.57 -44.84,59.11 -71.22,85.51 -1.07,1.05 -2.11,2.11 -3.18,3.12 -0.05,0.54 -0.09,1.07 -0.15,1.55 -6.17,66.28 -16.17,132.91 -33.61,197.24 -27.43,124.01 -75.62,261.21 -183.51,337.3 -64.44,45.44 -136.69,76.62 -214.82,88.64 -66.31,10.19 -133.03,8.19 -198.83,-4.77 -139.58,-27.51 -278.9,-87.87 -343.91,-223.46 -26.47,-55.2 -53.14,-117.8 -62.64,-178.53 -6.78,-43.2 -8.73,-86.47 -5.03,-130.05 2.76,-32.18 6.64,-64.31 11.38,-96.24 3.13,-21.17 2.53,-45.23 1.4,-66.51 -2.14,-40.17 -14.14,-89.05 -22.51,-124.41 -24.02,-92.99 -34.83,-191.19 -39.27,-286.98 -0.06,-0.93 -0.09,-1.76 -0.12,-2.71l-5.51 -167.54c-0.08,-2.33 -0.11,-4.34 -0.11,-6.66 0,-66.13 27.54,-123.86 63.21,-176.89 -72.03,-45.94 -121.63,-117.68 -121.63,-211.1 0,-57.41 8.64,-122.86 14.15,-180.26 8.7,-90.45 0.87,-190.39 -9.52,-280.4 -13.49,-116.9 -25.33,-234.86 -30.75,-352.47 -3.6,-46.15 -14.56,-161.18 -34.03,-214.94 -85.55,-49.55 -152.63,-122.2 -174.48,-223.13 -7.93,-36.72 -11.38,-73.99 -11.16,-111.27 -55.26,56.98 -128.92,93.38 -224.24,93.38 -4.86,0 -9.03,-0.14 -13.9,-0.48 -110.7,-7.62 -213.88,-49.46 -283.91,-138.37 -0.83,-1.05 -1.52,-1.96 -2.33,-3.03 -39.61,-52.28 -70.63,-109.92 -94.45,-170.96 -6.43,-16.46 -13.05,-33.28 -20.19,-49.88 -147.95,-1.22 -337.76,-13.6 -460.29,-93.14 -17.5,-11.35 -60.87,-38.02 -82.01,-40.97 -10.09,-1.42 -19.59,-1.39 -29.07,2.6 -26.79,11.28 -32.9,27.64 -37.16,56.24 -12.53,83.69 -21.95,168.09 -26.74,252.62 -3.58,63.27 -3.96,126.66 -0.06,189.93 0.72,11.65 1.99,29.69 3.99,48.96 130.71,-85.58 275.77,-135.39 433.07,-133.03 174.28,2.62 322.7,80.16 414.85,229.32 70.07,113.39 111.13,242.49 96.23,376.71 -8.48,76.31 -15.4,152.81 -21.43,229.36 -6.37,81.14 -17.36,162.01 -32.81,241.92 -0.44,2.26 -0.84,4.19 -1.37,6.43 -37.27,163.94 -114.3,339.32 -289.77,391.99 -129.65,38.92 -252.58,-8.15 -356.46,-82.5 -68.18,-2.03 -165.07,-0.95 -214.06,15.6 -4.14,17.26 -7.47,35.65 -10.13,49.57 -10,52.04 -10,106.48 -4.2,159.02 8.66,78.64 19.8,136.75 105.5,143.39 73.33,5.69 144.73,-1.82 212.95,-30.23 20.7,-8.63 71.99,-31.92 90.12,-50 50.7,-90.96 128.16,-160.43 234.56,-178.68 31.35,-5.38 62.83,-11.01 93.88,-17.92 43.95,-9.79 89.29,-14.76 134.29,-14.76 49.91,0 100.05,7.39 147.87,21.56 2.89,0.86 5.32,1.64 8.16,2.62 155.46,53.3 246.9,179.69 272.94,339.62 20.82,127.97 9.49,255.23 -43.62,374.07 -22.66,50.76 -44.13,106.89 -53.77,161.83 -9.05,51.55 -18.97,104.06 -32.12,154.74 -0.6,2.35 -1.16,4.34 -1.84,6.66 -21.32,71.88 -69.08,136.58 -118.75,191.61 -30.87,34.19 -61.25,68.96 -87.48,101.11 -100.08,128.65 -254.81,117.52 -375.25,32.7 -27.31,18.96 -63.25,58.21 -80.49,78.37 -46.33,62.74 -102.64,117.71 -167.94,153.1 -87.44,49.94 -193.36,58.1 -291.95,52.82 -113.12,-6.07 -221.91,-37.76 -310.86,-110.16 -50.17,-40.82 -98.61,-83.88 -144.33,-129.62 -5.62,-5.62 -10.13,-10.68 -15.09,-16.91 -23.74,-29.75 -119.85,-20.3 -150.22,-16.1 -176.86,24.51 -323.07,-56.57 -420.72,-199.59 -36.9,-44.61 -55.8,-98.86 -66.93,-156.38 -6.96,-36.02 -14.2,-71.99 -21.56,-107.93 -10.63,-40.19 -30.38,-114.24 -49.78,-148.08 -49.27,-68.31 -70.78,-148.66 -74.34,-232.34 -2.03,-47.59 -7.21,-95.23 -14.39,-142.33 -6.78,-44.36 -14.03,-89.14 -19.32,-133.72 -8.52,-59.16 -1.39,-118.75 13.45,-176.39 0.33,-1.34 0.63,-2.47 1.01,-3.82 6.84,-24.54 9.15,-50.43 9.18,-71.79l-6.61 -328.47c-0.02,-1.42 -0.03,-2.62 -0.03,-4.05 0,-61.75 2.26,-123.54 7.29,-185.09 4.08,-49.94 -4.05,-109.78 -11.58,-159.12 -16.97,-111.12 -34.59,-237.78 -30.87,-350.25 1.57,-47.65 2.77,-96.76 0.2,-144.38 -1.34,-24.38 -4.34,-49.18 -10.43,-72.83 -0.39,-1.55 -0.74,-2.88 -1.08,-4.43 -8.3,-35.44 -24.15,-77.32 -41.21,-117.88 -41.44,76.2 -91.88,149.44 -154.06,204.01 -35.68,31.32 -64.01,68.81 -85.66,111.04 -27.3,53.29 -45.32,110.17 -55.79,169.07 -23.74,133.58 -94.18,251.52 -183.86,351.4 -50.18,62.61 -110.97,130.56 -181.84,161.71 -22.03,10.18 -43.44,21.55 -64.49,33.62 -26.3,15.12 -52.05,33 -77.12,50.09 -46.71,31.89 -96.62,57.88 -148.75,79.61 -110.05,51.86 -228.71,79.36 -346.5,59.34 -39.93,13.6 -81.01,23.56 -122.98,29.72 -36.12,5.28 -71.88,13.04 -107.1,22.6 -7.66,2.88 -18.69,7.5 -25.27,11.99 -6.58,53.6 0.87,106.29 17.65,157.54 27.72,84.79 50.67,175.16 57.64,264.4 26.41,239.21 -33.05,465.41 -188.01,651.93 -45.91,55.26 -84.54,118.36 -100.32,189.16 -27.64,123.96 -84.29,241.14 -190.86,313.94 -186.33,157.69 -396.73,106.69 -538.63,-75 -9,-5.18 -19.18,-10.07 -27.27,-13.99 -4.68,-2.3 -8.6,-4.4 -13.1,-7 -113.87,-66.24 -183.77,-171.17 -210.04,-299.72 -18.16,-88.9 -26.12,-179.09 -26.12,-269.77 0,-60.72 -4.76,-121.48 -16.23,-181.16 -13.61,-71.01 -27.61,-141.91 -43.71,-212.41 -0.71,-3.07 -1.25,-5.71 -1.81,-8.81 -26.18,-143.6 -61.72,-323.71 -61.72,-469.44 0,-77.93 -1.14,-155.85 -3.24,-233.77 -2.68,-100.49 10.65,-199.94 45.43,-294.54 4.91,-13.36 12.09,-32.34 15.95,-48.14 -5.36,-57.25 6.94,-115.12 31.05,-167.36 14.44,-33.94 29.59,-67.42 42.49,-97.12 11.65,-28.74 21.56,-58.56 27.6,-89.03 4.34,-21.82 -0.87,-30.35 -17.23,-45.74 -107.94,-101.45 -180.61,-229.01 -180.61,-380l0 -38.58c0,-6.37 0.26,-11.82 0.81,-18.17 5.33,-59.07 18.05,-179.78 9.41,-240.73 -35.13,-152.81 -54.9,-308.76 -55.41,-465.63l-31.62 -529.85c-0.24,-4.22 -0.35,-7.81 -0.35,-12.05 0,-94.15 -2.42,-188.32 -6.14,-277.17 -12.71,-186.01 -37.31,-512.02 152.87,-621.29 1.85,-1.07 3.45,-1.96 5.35,-2.98 7.38,-3.94 21.53,-12.06 28.01,-18.67 51.9,-80.36 133.39,-134.2 231.66,-134.2 33.61,0 67.68,-1.64 101.26,-3.12 60.2,-2.68 120.68,-0.62 180.76,3.6 117.76,8.28 267.41,25.11 367.45,92.22 21.26,14.26 44.54,21.52 69.67,25.46 49.1,7.69 98.64,12.33 148.29,14.24 49.24,1.87 98.67,2.12 147.89,0.03 49.13,-2.09 98.34,-3.49 147.51,-3.49 57.47,0 114.57,6.26 165.85,31.71 8.82,3.3 19.57,6.85 27.12,7.81 106.2,-11.25 202.11,34.69 274.13,111.35 18.04,19.21 36.8,39.6 54.36,60.74 7.3,1.07 14.47,1.93 20.37,2.65 60.23,7.47 120.44,15.18 180.53,23.56 85.66,11.97 164.26,46.86 233.76,97.78 13.93,10.21 39.39,28.73 53.66,34.25 84.36,25.01 150.82,86.2 203.31,154.57 30.32,39.49 64.61,82.81 89.02,126.39 33.88,58.38 46.75,127 52.4,193.5 0.29,3.4 0.47,6.31 0.59,9.73 1.11,30.44 7.56,105.17 31.24,128.86 13.91,13.91 27.3,28.34 39.98,43.26 -3.21,-32.45 -5.87,-64.96 -8,-97.48 -6.64,-101.36 -6.53,-203.12 -2.47,-304.57 4.86,-122.05 32,-240.52 80.15,-352.75 137.51,-320.49 422.63,-447.69 760.01,-438.82 165.99,4.37 337.54,17.95 499.48,56 56.48,13.3 165.38,39.1 223.26,34.86 66.69,-4.89 161.47,-34.6 227.27,-54.85 205.99,-76.55 428.85,-93.8 615.57,40.65 12.63,9.09 26.82,17.59 41.26,23.68 55.44,20.3 103.76,52.58 145.57,94.36 2.88,2.88 5.27,5.41 8,8.46 153.43,172.05 137.71,479.35 114.01,692.68 -9.11,81.91 -16.2,164.04 -25.37,245.95 -11.43,102.12 -26.68,263.77 -3.75,364.81 3.43,15.06 6.7,30.2 9.8,45.41 1.02,-6.47 2.08,-12.95 3.1,-19.42 7.23,-45.19 15.27,-90.99 21.18,-136.35 0.39,-3.01 0.78,-5.57 1.31,-8.55 1.13,-6.46 1.76,-13.9 1.16,-20.43 -2.33,-25.11 -3.75,-50.21 -4.08,-75.4 -7.63,-73.54 -8.76,-149.02 2.12,-222.16 0.29,-1.97 0.56,-3.66 0.92,-5.63 5.72,-32.28 18.16,-102.21 14.56,-131.79 -19.84,-93.01 0.86,-194.65 26.32,-284.66 19.51,-68.98 42.14,-147.42 73.81,-211.74 42.97,-87.33 117.91,-145.06 208.01,-178.54 1.34,-0.5 2.48,-0.92 3.82,-1.39 31.47,-10.98 61.61,-28.83 88.71,-48 39.4,-27.87 77.12,-57.98 114.51,-88.52 32.27,-26.36 63.54,-53.84 94.14,-82.15 53.66,-49.69 118.42,-85.16 188.18,-106.63 6.61,-2.02 12.35,-3.49 19.12,-4.88 118.65,-24.14 261.04,-42.49 378.27,-3.79 66.88,22.09 136.35,52.7 191.03,97.85 1.4,1.14 2.57,2.14 3.93,3.34 18.99,16.5 44.34,31.68 61.88,42.37 20.45,11.76 42.07,21.31 64.8,27.73 20.09,4.67 43.09,9.18 63.49,9.18 6.9,0 12.78,0.29 19.65,0.96 75.22,7.33 164.96,17.9 234.47,55.67l171.59 -11.02c4.53,-0.3 8.4,-0.42 12.96,-0.42 148.11,0 315.29,20.6 436.65,112.97 61.94,47.14 124.1,99.92 174.36,159.56 37.22,44.15 70.74,90.94 102.13,139.35 1.2,1.84 2.2,3.42 3.33,5.3 18.78,31.02 46.03,60.06 72.17,84.94 83.35,79.29 131.22,182.19 131.22,297.61 0,2.05 0.05,5.03 0.32,7.69 16.19,18.41 29.93,38.05 41.56,58.65 12.78,-25.04 26.47,-49.69 41.11,-73.94 74.74,-123.75 157.28,-243.03 243.14,-354.14 137.32,-185.58 309.78,-385.68 506.93,-509.49 176.1,-110.59 391.66,-159.17 558.59,-6.17 14.47,12.29 28.49,21.71 48.08,18.99 47.72,-6.63 99.6,-15.16 145.75,-29.35 5.62,-1.73 10.45,-3 16.19,-4.26l112.02 -24.51c108.32,-25.87 218.05,-21.65 325.03,8.81 159.21,45.32 261.28,183.32 330.45,325.42 0.74,1.49 1.36,2.79 2.03,4.32 21.82,47.67 47.28,94.36 76.87,137.69 31.3,45.89 63.13,91.44 94.23,137.48 1.46,2.14 2.65,3.98 4.02,6.17 61.6,98.79 123.71,215.73 140.31,328.44 3.09,18.52 9.68,55.12 18.35,73.13 15.84,24.21 30.57,49.19 43.24,75.16zm6274.34 1447.57c1.29,14.91 5.06,32.3 8.03,46.74 15.73,76.8 11.37,154.54 -9.43,225.28 -5.21,19.45 -4.82,39.45 -1.46,59.2 0.24,1.42 0.44,2.62 0.65,4.04 15.06,101.02 -7.06,201.25 -48.17,289.2 -18.64,42.11 -25.91,85.88 -24.65,131.88 2.42,87.63 -3.33,175.61 -20.24,261.7 -7.56,38.38 4.89,93.7 15.55,130.32 68.01,233.37 -24.77,581.69 -95.08,810.31 -23.11,107.78 -69.52,213.34 -164.41,276.58 -1.25,0.83 -2.3,1.52 -3.57,2.33 -10.27,6.53 -21.38,13.48 -32.28,20.66 -44.52,170.37 -174.54,287.81 -357.27,263.87 -213.14,-27.92 -324.58,-222.65 -386.15,-407.94 -22.33,-67.12 -86.61,-260.71 -130.98,-320.17 -76.73,-65.17 -128.89,-150.55 -161.53,-245.44 -26.29,-76.41 -48.44,-154.08 -67.2,-232.67 -0.77,-3.27 -1.39,-6.08 -2,-9.4 -9,-47.64 -30.6,-161.92 -53.99,-212.74 -68.61,-66.43 -106.48,-159.83 -130.32,-250.86 -8.13,-31.06 -24.35,-92.55 -41.32,-119.96 -3.6,-5.83 -7.15,-11.67 -10.63,-17.56 -18.1,158.28 -47.88,335.18 -104.31,482.2 27.52,84.48 51.43,170.38 69.52,257.19 28.35,136.08 16.02,278.61 -13.72,413.36 -22.63,102.46 -45.79,204.83 -68.31,307.31 -16.49,75.01 -35.37,150.45 -59.67,223.37 -23.73,71.22 -57.32,142.09 -103.89,196.64 -69.89,85.13 -173.29,123.8 -281.92,108.32 -2,-0.29 -3.7,-0.56 -5.69,-0.89 -79.08,-13.6 -152.24,-46.47 -202.3,-111.15 -14.51,-18.23 -28.55,-36.86 -42.32,-55.65 -5.5,-7.5 -9.76,-14.2 -14.24,-22.33 -8.39,-15.3 -30.61,-24.75 -45.89,-30.2 -93.08,-33.14 -182.91,-82.95 -245.52,-161.18 -0.8,-0.99 -1.48,-1.84 -2.23,-2.83 -51.9,-67.27 -84.71,-145.27 -96.59,-225.21 -10.92,-64.22 -16.89,-129.08 -19.26,-194.16 -1.6,-44.04 -15.84,-90.69 -31.66,-131.48 -30.55,-78.84 -55.54,-165.46 -55.54,-250.61 0,-57.08 5.01,-114.6 18.19,-170.22 7.26,-34.12 15.19,-68.13 23.35,-102.06 -2,-20.94 -12.66,-54.3 -18.38,-71.79 -65.44,-201.05 -57.8,-406.44 74.31,-576.92 11.88,-17.63 33.64,-52.44 38.85,-72.89 -7.66,-29.65 -24.27,-83.43 -40.88,-92.1 -5.77,-3.01 -10.54,-5.78 -16.01,-9.31 -87.27,-56.31 -144.46,-142.57 -144.46,-248.29 0,-11.89 -0.2,-34.09 -3.27,-47.23 -49.79,-86.65 -50.83,-184.79 -21.41,-278.39 -7.78,-19.27 -12.21,-39.3 -13.49,-60.86 -4.35,-40.1 -10.37,-80.72 -15.37,-120.76 -13.76,-109.9 -23.53,-220.78 -32.81,-331.13 -11.93,-142 -22.93,-284.06 -35.23,-426.03 -13.01,-150.19 -22.4,-300.85 -25.97,-451.59 -8.37,-153.75 -33.29,-521.34 23.93,-660.24 0.63,-1.57 1.2,-2.89 1.88,-4.44 41.66,-94.68 108.77,-170.62 200.21,-219.39 1.11,-0.59 2.06,-1.07 3.18,-1.64 69.04,-35.29 142.74,-59.49 219.39,-71.52 3.24,-0.5 5.98,-0.87 9.24,-1.22 102.75,-11.32 210.12,-10.95 311.38,13.57 136.11,-49.79 306.57,-93.38 430.31,-22.93 140.6,2.51 262.12,72.26 339.56,206.22 36.6,63.3 70.48,130.02 104.42,194.82 52.71,100.79 106.95,200.83 160.88,300.99 18.69,34.69 37.34,69.43 56.01,104.16 2.71,-18.41 5.93,-36.74 9.73,-54.97 11.46,-55.05 27.3,-147.93 14.27,-203.85 -19.36,-83.05 -31.74,-167.69 -31.74,-253.12 0,-69.61 16.76,-137 53.33,-196.61 98.41,-160.39 291.05,-198.58 465.32,-198.58 52.26,0 104.54,1.42 152.75,3.33 75.12,1.48 153.96,-4.94 228.64,-12.29 164.5,-16.2 317.79,30.41 443.94,137.47 166.62,141.4 182.14,363.28 149.23,564.92 -21.14,129.55 -54.31,320.8 -48.27,451.89 3.78,81.67 5.71,163.41 5.71,245.17 0,123.07 -20.22,256.01 -41.66,376.99 -22.87,129.05 -62.44,367.27 -38.76,497.13 14.91,81.74 29.72,172.42 29.72,255.64l0 100.01zm-16173.29 -252.61c67.05,-104.36 121.13,-216.44 164.53,-328.8 5.24,-14.68 15.95,-47.49 18.37,-69.19 -60.75,-78.85 -106.44,-169.69 -115.85,-267.33 -23.8,-5.21 -48.53,-5.84 -70.75,4.37 -16.85,7.72 -40.73,20.46 -47.29,39.49 -7.18,20.88 -21.37,62.31 -22.42,80.63 0.68,11.22 1.29,24.69 3.19,36.08 2.02,6.41 4.85,12.98 7.66,18.97 2.09,4.41 3.73,8.24 5.5,12.8 13.88,35.64 24.14,72.74 31.75,110.19 10.46,51.48 16.94,104.87 22.69,157.09 7.5,68.25 7.9,137.26 2.62,205.71zm5691.38 -164.15l9.12 138.7c34.27,-66.34 66.7,-135.56 90.42,-202.24 13.85,-41.6 15.58,-83.63 8.69,-126.79 -9.97,-62.41 -22.37,-134.14 -22.37,-197.23l0 -5.81c-40.77,-1.37 -81.08,-9.47 -119.84,-24.45 -0.39,0.48 -0.78,0.96 -1.14,1.45 -2.2,27.84 -1.26,56.69 0.92,84.44 15.07,105.1 33.44,225.79 34.21,331.94zm5687.3 1404.46c48.86,-157.15 81.65,-431.62 90.27,-514.51 18.02,-173.77 24.27,-350.07 24.27,-524.7 0,-166.53 -21.58,-340.6 -87.39,-494.86 -8.55,-20.07 -32.7,-71.23 -55.53,-101.35 -32.18,46.83 -66.72,132.71 -78.69,165.4 -20.31,55.42 -76.85,212.2 -77.08,273.58 3.06,14.73 8.69,33.83 18.01,44.61 64.11,74.03 97.93,170.05 116.24,264.96 19.21,99.57 24.8,201.34 19.97,302.55 -4.04,85.27 -6.37,170.62 -6.37,256 0,66.39 2.77,133.58 11.47,199.44 5.69,43 13.25,86.77 24.83,128.87zm6292.08 -1111.62c-39,106.23 -88.25,278.6 -40.44,389.9 2.67,4.46 6.04,9.67 9.28,13.73 17.84,1.88 48.96,4.95 74.79,4.89 14.88,-18.6 30.04,-36.96 45.41,-55.18 0.15,-8.91 -0.87,-19.69 -1.61,-26.2 -7.6,-69.04 -14.08,-138.18 -19.35,-207.41 -2.94,-38.38 -24.38,-87.66 -41.23,-121.63 -5.03,-10.13 -9.86,-20.31 -14.51,-30.58 -3.91,10.98 -8.01,21.82 -12.33,32.48z"/>
   <g>
    <path class="fil2" d="M652.02 2168.53l-31.97 -535.66c0,-90.37 -2.2,-187.37 -6.61,-290.97 -17.63,-257.92 0,-402.3 51.81,-432.07 47.38,-25.34 80.45,-53.99 100.29,-83.76 18.73,-30.87 40.77,-45.19 63.93,-45.19 24.24,0 60.62,-1.1 110.22,-3.31 49.6,-2.2 102.51,-1.1 157.62,3.31 133.36,8.81 223.74,27.55 268.93,58.42 45.19,29.75 94.8,48.48 151.01,57.31 56.21,8.82 113.53,14.33 171.93,16.53 57.32,2.2 112.43,2.2 164.24,0 51.8,-2.2 98.1,-3.31 138.87,-3.31 40.77,0 67.23,4.41 80.46,13.23 51.8,20.94 95.88,29.75 132.26,25.36 36.38,-4.41 72.74,12.12 106.92,48.48 34.16,36.38 58.41,65.03 70.54,83.78 13.22,19.83 55.11,33.06 126.75,41.89 70.54,8.81 130.06,16.53 177.44,23.14 47.4,6.61 94.8,26.45 142.18,60.62 47.4,35.26 85.97,56.21 115.74,65.03 29.75,8.81 63.92,36.36 100.29,83.76 36.38,47.4 61.72,81.56 73.85,103.61 13.22,22.04 22.04,58.42 26.44,110.22 4.41,120.14 34.18,208.33 90.39,264.53 56.21,56.21 87.07,109.12 93.68,160.91 6.61,51.81 12.12,112.43 15.43,180.77 4.41,69.43 12.12,154.3 23.14,255.7 11.02,101.41 -11.02,212.72 -65.03,336.17 -52.89,122.35 -106.9,207.21 -160.91,254.61 -54.01,47.4 -98.1,104.71 -132.26,170.84 -34.18,67.24 -59.52,142.18 -74.95,225.96 -14.33,83.76 -60.62,169.74 -138.88,255.71 -47.38,59.5 -84.86,96.98 -112.41,109.12 -28.67,13.22 -55.11,27.55 -80.46,41.87 -26.45,15.43 -56.21,35.28 -90.39,58.42 -35.26,24.24 -73.84,44.09 -116.83,61.72 -108.02,51.81 -199.5,61.73 -277.75,31.97 -47.4,22.04 -93.68,35.28 -138.87,41.89 -45.2,6.61 -91.49,16.53 -138.88,29.75 -99.19,34.18 -153.2,92.58 -164.23,174.15 -11.02,81.56 -2.2,165.34 25.36,251.3 28.65,85.97 44.09,159.83 48.5,220.45 22.04,192.88 -25.36,361.51 -142.2,503.7 -72.74,85.97 -120.14,177.46 -142.18,274.44 -20.93,95.9 -59.52,162.03 -115.73,196.19 -94.78,85.97 -185.17,67.24 -271.14,-57.31 -13.22,-13.22 -40.77,-30.87 -83.76,-51.81 -60.62,-35.26 -98.1,-89.27 -113.53,-165.32 -15.43,-74.95 -22.04,-151.01 -22.04,-229.26 0,-77.15 -6.61,-149.89 -19.83,-219.33 -13.23,-68.34 -27.57,-142.18 -45.2,-219.33 -38.58,-211.62 -58.41,-354.92 -58.41,-433.17 0,-77.15 -1.11,-156.52 -3.31,-239.18 -2.2,-81.56 8.82,-154.3 33.06,-219.33 23.14,-63.93 33.06,-106.92 28.65,-128.96 -4.41,-20.93 0,-46.28 13.23,-73.84 12.12,-28.65 27.55,-62.83 45.19,-103.61 16.53,-40.79 29.75,-82.66 38.58,-125.65 17.63,-90.39 -8.82,-168.64 -77.15,-232.57 -78.25,-73.84 -116.84,-151.01 -116.84,-232.57l0 -38.58c13.23,-146.58 15.43,-245.79 6.63,-297.58 -34.18,-146.59 -51.81,-290.99 -51.81,-433.17zm1033.86 294.29c7.71,19.84 15.43,45.2 22.04,77.15 6.61,33.08 13.22,79.36 19.83,138.88 6.63,60.62 6.63,124.55 0,190.68 -6.61,67.23 -12.12,127.85 -16.53,184.07 -8.81,142.18 8.82,221.53 51.81,239.18 47.4,22.04 124.55,-36.38 232.57,-174.15 115.73,-142.18 212.72,-314.13 290.97,-516.93 38.58,-108.02 40.77,-187.38 5.51,-239.18 -72.74,-85.97 -102.51,-163.13 -90.39,-232.57 4.41,-4.41 4.41,-14.32 0,-31.97 -7.71,-8.81 -18.73,-19.83 -31.95,-35.26 -13.23,-15.43 -31.97,-29.77 -58.42,-41.89 -99.19,-38.58 -188.48,-39.67 -267.83,-3.3 -79.36,36.36 -131.16,89.27 -154.32,157.62 -24.24,69.43 -35.26,122.34 -33.06,158.71 2.21,36.36 5.51,62.82 9.92,77.15 4.41,15.43 11.02,33.06 19.84,51.8zm2040.16 1869.32l-6.61 -328.45c0,-60.62 2.2,-116.83 6.61,-168.64 4.41,-56.21 0,-124.55 -13.22,-206.11 -20.94,-142.18 -30.87,-246.89 -28.65,-313.02 2.2,-67.24 2.2,-121.24 0,-162.03 -2.21,-40.77 -7.72,-78.25 -16.53,-112.43 -12.14,-51.8 -44.1,-134.46 -93.7,-245.79 -49.6,-112.41 -73.84,-232.55 -73.84,-361.51 0,-128.96 27.55,-232.57 83.76,-309.72 51.81,-78.25 71.64,-157.62 58.42,-239.18 -13.23,-81.56 -23.14,-169.74 -29.77,-262.32 -5.51,-92.58 -6.61,-187.37 -2.2,-283.26 3.31,-96.98 25.36,-190.68 63.93,-281.05 94.78,-220.45 284.36,-325.15 568.73,-316.33 176.35,3.3 329.55,20.94 458.51,50.7 128.96,30.87 223.74,44.09 284.36,39.67 59.52,-4.4 152.1,-26.45 277.75,-65.03 180.76,-68.33 324.05,-65.03 432.07,13.23 29.75,20.94 59.5,37.48 87.06,48.5 28.67,9.92 52.91,26.45 74.95,48.5 72.75,81.56 94.8,260.11 63.93,535.66 -8.82,81.56 -16.53,163.13 -25.36,245.79 -22.04,192.88 -22.04,337.27 0,432.06 20.94,94.8 33.06,177.46 35.28,249.1 2.2,70.54 -1.1,134.47 -9.92,190.68 -25.36,124.55 -74.95,187.37 -148.79,187.37 -63.93,-4.41 -110.23,-25.34 -138.88,-61.72 -27.55,-36.38 -49.6,-77.15 -67.23,-122.35 -17.63,-45.19 -35.28,-87.06 -55.11,-123.44 -18.75,-36.38 -61.73,-55.11 -125.65,-55.11 -189.58,0 -315.23,-19.84 -378.06,-60.62 -62.82,-40.79 -116.83,-65.03 -164.23,-71.66 -47.38,-6.61 -92.58,-1.1 -135.57,16.55 -90.37,38.58 -143.28,110.22 -158.71,212.72 -15.43,103.61 -24.24,193.98 -28.65,271.13 -4.41,78.27 -4.41,148.81 0,213.82 8.82,149.91 37.48,235.88 87.07,254.61 49.6,19.84 91.49,22.04 125.65,6.61 34.16,-15.42 69.44,-33.06 103.61,-55.11 103.61,-68.33 209.41,-101.39 319.64,-100.29 109.12,2.2 191.78,46.28 245.79,133.36 52.89,85.97 76.05,168.64 67.23,248 -8.82,79.35 -16.53,158.71 -22.04,235.87 -6.61,77.15 -16.53,151.01 -29.75,219.33 -60.63,266.73 -185.17,318.54 -374.75,155.42 -244.69,-17.63 -397.89,13.22 -458.51,90.37 -12.14,20.94 -25.36,66.14 -38.58,135.57 -13.23,68.34 -15.43,142.18 -6.63,219.35 22.04,202.8 119.04,309.7 290.99,322.94 112.41,8.81 213.82,-6.61 306.41,-45.2 92.58,-38.58 154.3,-81.56 184.07,-128.95 26.45,-51.81 58.41,-80.46 97,-87.07 38.58,-6.61 73.84,-13.23 103.61,-19.84 29.75,-6.61 60.62,-9.92 90.37,-9.92 29.77,0 60.62,4.41 90.39,13.23 77.15,26.45 123.44,85.97 138.87,180.76 15.43,94.78 5.51,180.76 -28.65,259.01 -35.28,77.17 -57.32,146.59 -68.34,209.43 -11.02,62.82 -20.93,109.12 -28.65,138.87 -8.81,29.77 -34.16,68.34 -74.95,113.53 -40.77,45.19 -72.74,82.66 -96.98,112.43 -23.16,29.75 -60.63,24.24 -112.43,-18.75 -94.78,-73.84 -209.41,-30.85 -342.78,128.96 -34.16,47.4 -70.54,81.56 -109.12,102.51 -38.58,22.04 -99.19,30.85 -180.76,26.45 -82.66,-4.41 -146.59,-26.45 -193.99,-65.03 -47.38,-38.58 -90.37,-77.15 -128.95,-115.73 -65.03,-81.56 -176.36,-112.43 -336.17,-90.39 -94.78,13.22 -171.93,-28.65 -232.57,-123.45 -13.22,-12.12 -22.04,-36.36 -28.65,-70.54 -6.61,-34.16 -14.32,-72.74 -23.14,-115.73 -29.77,-112.43 -57.32,-184.07 -80.46,-217.13 -24.24,-31.97 -36.38,-73.84 -38.58,-125.65 -2.2,-51.8 -7.71,-106.9 -16.53,-164.23 -8.82,-58.42 -15.43,-101.39 -18.73,-130.06 -4.41,-27.55 -1.11,-60.62 8.81,-99.19 11.02,-39.67 16.53,-82.66 16.53,-130.06zm4230.22 -3428.93l206.11 -13.22c146.59,0 251.3,24.24 314.12,71.64 61.73,47.4 109.12,90.39 142.18,128.96 31.97,38.58 60.63,78.25 87.07,119.02 25.36,41.89 60.62,83.78 105.82,126.76 45.19,42.99 68.33,93.68 68.33,150.99 0,58.42 16.53,104.72 48.5,138.88 31.97,35.26 48.5,90.37 48.5,168.64 0,77.15 -1.1,151.01 -3.3,222.65 -2.21,70.54 -9.92,128.95 -23.16,174.15 -12.12,45.19 -18.73,90.37 -18.73,135.56 0,45.2 9.92,85.97 28.65,122.35 19.84,37.48 22.04,125.65 6.61,265.63 -15.43,139.97 -38.58,281.05 -70.54,422.13 -33.06,142.18 -74.94,265.63 -126.75,368.14 -103.61,193.98 -271.14,347.18 -503.7,458.51 22.04,51.8 46.28,109.12 74.94,171.93 27.57,61.73 54.01,125.65 80.46,190.68 56.22,158.71 83.78,274.46 83.78,344.98 0,70.54 3.3,122.35 9.91,155.42 6.63,31.97 13.23,56.21 22.04,73.85 8.82,17.63 20.94,29.75 36.38,38.58 14.33,8.81 37.48,25.34 67.23,48.5 29.77,24.24 54.01,63.92 71.66,120.14 16.53,55.11 25.34,113.51 25.34,174.13 0,137.79 -16.53,222.65 -48.5,254.61 -31.97,31.97 -67.23,54.01 -103.61,65.03 -36.36,11.02 -73.84,17.63 -112.41,22.04 -99.19,13.23 -162.03,0 -187.38,-38.58 -34.16,-34.16 -52.89,-69.44 -55.11,-106.92 -2.2,-36.36 -9.92,-68.33 -23.14,-95.88 -12.12,-28.65 -31.97,-45.19 -57.32,-51.81 -26.44,-6.61 -44.09,-34.16 -55.11,-81.56 -11.02,-47.38 -25.34,-78.25 -45.19,-93.68 -19.84,-14.32 -59.52,-17.63 -119.04,-8.81 -108.02,20.93 -187.37,-42.99 -239.18,-193.99 -13.22,-34.16 -26.44,-79.36 -38.58,-135.57 -13.22,-56.21 -28.65,-110.22 -45.19,-162.03 -35.26,-124.54 -74.95,-191.78 -120.14,-202.8 -45.19,-11.02 -78.25,-5.51 -100.29,15.43 -20.94,22.04 -37.48,50.7 -48.5,88.17 -9.92,36.38 -15.43,77.15 -15.43,122.35 0,45.19 5.51,93.68 15.43,145.48 11.02,51.81 12.12,94.8 3.3,128.96 -7.71,34.16 -19.83,62.83 -35.26,83.76 -15.43,22.04 -30.87,40.79 -48.5,58.42 -34.16,20.94 -55.11,63.93 -61.72,128.96 -5.51,65.03 -15.43,120.14 -28.67,167.52 -25.34,116.84 -60.62,189.58 -103.61,220.45 -42.99,29.75 -85.96,47.4 -128.95,54.01 -42.99,6.61 -85.97,5.51 -128.96,-3.31 -108.02,-20.94 -174.15,-58.41 -200.6,-112.41 -25.34,-54.01 -40.77,-94.8 -45.19,-122.35 -4.41,-28.65 -5.51,-55.11 -3.31,-81.56 2.21,-25.34 5.51,-54.01 9.92,-83.76 4.41,-29.77 5.51,-65.03 3.31,-106.92 -2.21,-40.77 -12.12,-94.78 -28.65,-164.23 -17.65,-68.33 -28.67,-151.01 -33.08,-245.79l-5.51 -167.54c0,-17.63 14.33,-46.28 45.2,-87.07 29.75,-40.77 39.67,-88.17 28.65,-142.18 -11.02,-54.01 -35.26,-88.17 -73.85,-103.61 -39.67,-14.32 -58.41,-33.06 -58.41,-55.11 0,-20.94 4.41,-74.95 13.22,-160.91 7.72,-85.97 4.41,-193.99 -9.92,-322.95 -15.42,-128.95 -25.34,-243.57 -29.75,-341.67 -16.53,-216.04 -54.01,-337.27 -112.43,-365.93 -58.41,-27.55 -91.49,-61.73 -100.29,-102.51 -8.82,-40.79 -8.82,-87.07 0,-138.88 8.81,-51.8 18.73,-116.83 28.65,-193.98 11.02,-77.15 23.14,-156.52 36.38,-235.88 12.12,-79.35 24.24,-154.3 35.26,-222.63 11.02,-69.44 18.75,-116.84 22.04,-142.18 4.41,-25.36 5.51,-50.71 3.31,-73.85 -2.2,-24.24 -3.31,-46.28 -3.31,-68.34 -7.71,-68.33 -7.71,-128.95 0,-180.76 17.65,-99.19 22.04,-168.64 13.23,-209.41 -8.82,-41.89 -1.1,-103.61 23.14,-187.37 23.14,-83.78 44.09,-143.3 60.62,-177.46 17.63,-35.26 49.6,-60.62 97,-78.25 47.4,-16.53 93.68,-41.89 138.87,-73.85 45.2,-31.97 87.07,-65.03 125.65,-97 39.69,-31.97 73.85,-62.82 103.61,-90.37 29.77,-27.55 67.24,-48.5 110.23,-61.73 124.54,-25.34 216.02,-28.65 274.44,-9.91 58.42,19.83 100.29,40.77 125.65,61.72 25.36,22.04 57.32,42.99 93.68,65.03 36.38,20.94 74.95,37.48 115.73,48.5 41.89,9.92 79.36,15.43 113.53,15.43 90.39,8.81 145.49,20.93 164.23,36.36 19.84,14.33 42.99,22.04 68.34,22.04zm-535.66 1802.09l38.58 587.47c0,38.58 -2.21,76.05 -6.61,113.51 -4.41,36.38 -8.82,69.44 -13.23,99.21 -4.41,65.03 19.84,103.61 71.64,116.83 42.99,8.82 77.15,-3.31 102.51,-35.26 26.45,-33.08 49.6,-77.17 71.64,-132.27 51.81,-108.02 68.34,-177.44 51.81,-207.21 -35.28,-42.99 -44.09,-80.45 -29.77,-113.53 15.43,-31.95 47.4,-94.78 97,-189.57 49.6,-94.8 85.97,-177.46 110.22,-245.79 23.14,-69.44 28.65,-143.3 16.53,-222.65 -13.22,-79.36 -19.83,-134.47 -19.83,-165.34l0 -70.53c0,-34.18 -16.53,-66.14 -48.5,-93.7 -31.97,-27.55 -55.11,-42.99 -68.34,-45.19 -12.12,-2.2 -23.14,-3.31 -31.97,-3.31 -38.58,8.82 -74.94,5.51 -109.12,-9.91 -35.26,-14.33 -67.23,-20.94 -96.98,-18.75 -30.87,2.21 -65.03,22.04 -103.61,60.62 -38.59,39.69 -60.63,79.36 -65.03,120.14 -4.41,40.79 -4.41,87.07 0,138.88 22.04,154.3 33.06,260.12 33.06,316.33zm4239.03 -923.65c11.02,25.36 14.33,54.01 9.92,83.78 -4.41,29.75 -34.16,81.56 -90.37,155.4 -56.22,72.75 -89.29,151.01 -100.31,235.88 -9.92,83.76 -13.22,152.09 -8.81,206.1 3.3,54.01 3.3,100.31 0,138.88 -4.41,94.78 -56.22,159.81 -155.42,193.98 -85.97,34.18 -153.2,31.97 -200.6,-6.61 -47.38,-38.58 -85.96,-89.27 -115.73,-152.1 -30.87,-61.72 -52.91,-115.73 -68.33,-160.91 -14.33,-45.2 -39.69,-70.54 -73.85,-74.95 -60.62,-12.12 -106.92,-5.51 -138.87,19.84 -31.97,25.34 -57.32,47.38 -73.85,65.03 -35.26,34.16 -70.54,57.31 -106.92,70.54 -36.36,13.22 -66.13,26.44 -87.07,38.58 -42.97,30.85 -60.62,80.45 -51.8,148.79 17.63,133.36 165.32,336.17 445.29,607.3 51.8,51.81 113.51,106.92 184.05,167.54 71.66,60.62 141.08,128.96 210.52,207.21 154.3,185.17 240.28,393.48 257.91,626.05 17.65,236.96 -17.63,443.08 -103.61,619.42 -68.33,142.2 -149.89,234.78 -244.69,277.75 -73.84,39.69 -123.44,89.29 -148.79,152.1 -26.45,62.83 -45.19,108.02 -58.42,135.57 -13.22,28.65 -39.67,51.81 -80.45,71.64 -40.79,18.75 -87.07,26.45 -138.88,22.04 -51.8,-4.4 -100.29,-14.32 -145.49,-28.65 -45.19,-15.43 -85.96,-33.06 -122.34,-51.8 -37.48,-19.84 -67.23,-30.87 -90.39,-35.28 -24.24,-4.41 -46.28,3.31 -68.33,22.04 -20.94,19.84 -42.99,39.67 -63.93,61.73 -65.03,63.92 -123.44,89.27 -175.25,73.84 -50.7,-14.33 -111.32,-39.67 -180.76,-73.84 -68.34,-34.18 -135.57,-77.17 -199.5,-128.96 -232.55,-180.76 -313.02,-365.93 -239.18,-555.51 47.4,-125.65 100.31,-213.82 157.62,-265.63 58.42,-50.7 104.72,-77.15 138.88,-77.15 56.21,0 93.68,20.94 113.53,61.72 19.83,40.79 35.26,74.95 48.5,103.61 13.22,27.55 27.55,49.61 45.19,67.24 17.63,17.63 44.09,34.16 80.46,51.8 36.36,17.63 76.05,27.55 120.14,31.97 106.9,8.82 188.47,-34.16 244.69,-128.96 56.21,-94.78 78.25,-198.39 65.02,-309.7 -30.85,-202.82 -73.84,-288.78 -128.95,-257.92 -47.4,29.77 -105.82,30.87 -175.25,2.21 -68.34,-27.55 -104.72,-63.93 -109.12,-109.12 -4.41,-45.2 -13.23,-89.29 -26.45,-132.27 -12.12,-42.97 -27.55,-83.76 -45.2,-123.44 -38.58,-98.1 -72.74,-152.1 -102.49,-160.93 -35.28,-8.81 -81.56,-13.22 -138.88,-13.22 -58.42,0 -122.34,-37.48 -190.68,-112.43 -69.43,-76.05 -119.04,-170.84 -148.79,-284.36 -29.77,-114.63 -56.21,-213.82 -77.15,-297.58 -22.04,-83.78 -40.79,-148.81 -58.42,-196.19 -17.63,-47.4 -31.97,-97 -45.19,-148.81 -42.99,-164.23 -45.19,-374.73 -6.61,-632.66 25.34,-151.01 72.74,-283.26 142.18,-397.89 68.33,-113.53 146.59,-227.04 232.55,-338.37 163.13,-220.43 314.13,-372.54 451.9,-458.51 137.77,-87.07 243.59,-94.78 316.33,-26.45 65.03,56.22 134.47,78.27 210.52,68.34 74.95,-11.02 134.47,-23.16 177.44,-36.38l115.74 -25.36c73.84,-17.63 147.69,-15.42 222.63,6.63 76.05,20.93 143.3,94.78 203.91,219.33 29.75,65.03 61.72,121.24 93.68,167.54 31.97,47.38 63.93,92.58 93.68,136.67 63.93,102.49 102.51,187.37 112.43,254.6 11.02,66.13 26.45,114.63 45.19,145.49 19.84,29.75 35.28,57.32 45.19,83.76zm856.4 -691.06c47.4,-42.99 88.17,-89.29 123.45,-138.88 34.16,-49.6 79.35,-95.88 135.57,-138.87 149.89,-124.55 300.9,-160.93 451.9,-110.23 185.15,69.44 354.91,112.43 510.31,130.06 154.3,16.53 267.83,55.11 338.37,115.74 71.64,60.62 132.26,124.54 184.07,193.98 124.55,163.13 200.6,341.69 225.94,535.66 4.41,73.85 17.65,124.55 38.58,155.42 56.22,94.78 74.95,221.55 55.12,381.36 -18.75,158.71 -25.36,270.03 -18.75,331.76 5.51,62.82 16.53,109.12 31.97,138.87 15.43,30.87 28.65,60.62 41.89,90.39 34.16,82.66 51.8,164.23 51.8,245.79 0,103.61 -34.16,206.11 -103.61,309.72 -29.75,38.58 -40.77,114.63 -31.97,225.94 8.82,112.43 15.43,223.74 18.75,336.17 4.41,279.95 -9.92,453 -45.2,520.23 -34.16,66.13 -58.41,105.82 -73.84,119.04 -15.43,13.22 -28.65,24.24 -41.89,31.97 -65.03,30.87 -121.24,120.14 -170.84,268.93 -49.6,147.69 -115.73,268.95 -197.29,361.53 -81.56,92.57 -166.44,167.52 -254.61,225.94 -89.27,57.31 -157.62,102.51 -207.21,135.57 -49.6,31.97 -84.88,62.82 -106.92,93.68 -20.93,29.75 -42.97,59.52 -63.92,90.39 -56.22,68.33 -126.76,103.61 -213.84,103.61 -145.48,0 -253.5,-35.28 -322.94,-103.61 -29.75,-38.58 -61.72,-94.8 -95.88,-168.64 -65.03,-115.74 -151.01,-210.52 -259.02,-283.26 -120.14,-82.66 -193.98,-205.01 -219.33,-368.14 -13.23,-56.21 -16.53,-112.41 -9.92,-168.64 6.61,-55.11 3.31,-126.75 -9.92,-212.72 -7.71,-85.97 -25.34,-164.23 -50.7,-232.55 -26.45,-69.44 -41.89,-133.37 -46.3,-193.99 -20.93,-180.76 -81.55,-277.75 -180.76,-290.97 -72.74,-7.72 -115.73,-117.94 -128.95,-328.47 -4.41,-108 0,-210.51 13.22,-307.51 13.23,-97 29.77,-179.66 51.81,-248 34.16,-125.65 45.19,-270.03 31.95,-436.47 -13.22,-165.32 -13.22,-313.02 0,-441.98 22.04,-241.38 73.85,-437.57 155.42,-587.46 38.58,-65.03 95.9,-128.96 170.84,-193.99 74.95,-65.03 149.91,-126.75 222.65,-187.37zm410.01 1847.26c11.02,59.52 33.06,108.02 65.03,145.49 31.97,36.38 56.22,93.68 70.54,170.84 15.43,77.17 20.94,162.03 16.53,254.61 -4.41,92.58 -6.61,180.76 -6.61,265.63 0,83.76 4.41,158.71 13.22,225.94 8.82,66.13 20.94,127.86 38.59,184.07 47.38,133.37 113.51,199.5 200.59,199.5 133.37,0 225.96,-257.92 277.75,-774.84 16.53,-142.18 25.36,-324.05 25.36,-545.58 0,-221.55 -34.16,-413.33 -103.61,-574.25 -68.34,-162.03 -152.1,-242.48 -251.3,-242.48 -94.8,0 -180.76,105.8 -259.02,316.33 -68.33,189.58 -98.1,314.12 -87.07,374.73zm2702.58 -2105.19c214.94,-85.96 331.76,-94.78 348.3,-26.45 108.02,-25.34 187.38,6.63 239.18,97 17.63,29.77 50.7,92.58 100.29,187.38 49.61,94.78 103.61,196.19 162.03,303.09 57.32,108.02 112.43,209.43 164.23,304.21 51.81,94.78 85.97,157.62 103.61,190.68 16.53,31.97 38.58,50.7 63.93,54.01 26.45,4.41 51.81,-2.2 78.25,-18.75 55.12,-42.97 71.66,-108 48.5,-193.98 -24.24,-85.97 -35.26,-154.3 -33.06,-202.8 2.21,-49.6 7.72,-95.9 16.53,-138.88 25.36,-121.24 29.77,-218.23 13.23,-290.97 -17.65,-73.85 -26.45,-142.18 -26.45,-207.21 0,-128.96 105.8,-192.89 316.33,-192.89 42.99,0 92.58,1.11 148.79,3.31 56.21,1.1 139.98,-2.2 252.4,-13.22 111.33,-11.02 209.43,18.73 293.19,90.37 83.78,70.54 111.33,197.29 80.46,378.06 -38.58,244.67 -55.11,410.01 -50.7,493.77 3.3,83.78 5.51,162.03 5.51,235.87 0,77.17 -12.14,191.79 -38.58,341.69 -47.4,266.73 -59.52,456.31 -38.58,568.73 17.63,99.21 26.44,171.95 26.44,219.35l0 103.61c0,13.22 3.31,40.77 12.14,83.76 8.81,42.99 6.61,87.07 -6.63,132.26 -12.12,45.2 -14.32,93.68 -5.51,145.49 7.72,51.8 -2.2,111.32 -33.06,177.44 -29.75,67.24 -44.09,139.98 -41.87,219.35 2.2,80.45 -3.31,152.1 -16.53,217.13 -12.14,63.92 -5.51,139.97 19.83,225.94 38.58,133.36 6.61,368.14 -97,703.2 -16.53,82.66 -44.09,134.47 -80.45,158.71 -36.38,23.14 -63.93,41.89 -80.46,55.11 -17.63,12.12 -30.87,40.79 -38.58,83.78 -22.04,85.96 -67.23,124.54 -135.57,115.73 -91.49,-12.12 -164.23,-102.51 -220.43,-271.14 -77.17,-232.57 -139.98,-368.12 -187.38,-406.72 -47.38,-38.58 -82.66,-92.58 -105.8,-160.91 -24.26,-69.44 -44.09,-139.98 -61.73,-213.82 -34.16,-180.76 -69.43,-284.36 -103.61,-313.03 -34.16,-27.55 -61.72,-82.66 -83.76,-164.23 -20.94,-82.66 -42.99,-139.97 -65.03,-175.25 -20.94,-34.16 -41.87,-72.74 -60.62,-115.73 -19.84,-42.99 -39.67,-85.97 -61.72,-128.96 -56.22,-108.02 -109.12,-155.4 -160.93,-142.18 -30.85,8.82 -50.7,46.3 -61.72,112.43 -11.02,67.23 -20.94,147.69 -28.65,242.48 -26.45,275.56 -69.44,473.94 -130.06,594.08 39.67,112.43 68.33,214.94 88.17,307.52 18.73,92.58 14.33,201.7 -13.22,328.45 -28.67,127.85 -50.71,229.26 -68.34,307.51 -16.53,77.15 -35.26,145.49 -54.01,202.8 -19.84,58.42 -42.99,102.51 -68.33,132.27 -25.36,30.85 -58.42,41.87 -97,36.36 -38.58,-6.61 -63.93,-18.73 -77.15,-36.36 -13.23,-16.53 -26.45,-34.18 -38.58,-50.71 -30.87,-56.21 -82.68,-96.98 -155.42,-123.44 -72.74,-25.36 -124.55,-58.42 -155.4,-97 -29.77,-38.58 -49.61,-83.76 -57.32,-135.57 -8.82,-51.8 -14.33,-106.92 -16.53,-167.54 -2.2,-60.62 -17.63,-125.65 -45.19,-197.29 -27.55,-70.54 -41.89,-130.06 -41.89,-177.44 0,-47.4 4.41,-89.29 13.22,-125.65 7.72,-36.38 16.53,-73.85 25.36,-110.23 8.82,-36.36 0,-93.68 -25.36,-170.84 -51.8,-159.81 -37.46,-290.97 45.2,-394.58 59.52,-85.97 85.97,-158.73 77.15,-219.35 -26.45,-124.54 -74.95,-206.1 -148.79,-244.69 -34.18,-22.04 -51.81,-47.38 -51.81,-78.25 0,-63.93 -8.82,-112.41 -28.65,-145.49 -19.84,-31.95 -20.94,-73.84 -3.31,-125.65 17.63,-51.8 15.43,-94.78 -6.61,-128.95 0,-4.41 -5.51,-48.5 -16.53,-132.27 -9.92,-83.76 -20.94,-191.78 -31.97,-322.94 -11.02,-131.16 -22.04,-273.34 -35.26,-426.55 -13.23,-152.1 -22.04,-299.8 -25.36,-441.98 -17.63,-327.35 -14.33,-519.13 8.82,-575.35 24.24,-55.11 60.62,-95.88 110.22,-122.34 49.6,-25.36 102.51,-42.99 158.71,-51.81 120.14,-13.22 219.33,-4.4 296.48,26.45z"/>
    <path class="fil2" d="M18838.23 5623.91c-42.99,13.23 -91.49,9.92 -144.4,-9.92 -54.01,-18.73 -91.47,-55.11 -113.51,-109.12 -22.06,-54.01 -35.28,-116.83 -41.89,-187.37 -6.61,-70.54 -7.72,-147.69 -3.31,-229.26 4.41,-81.56 6.61,-162.03 6.61,-239.18 0,-171.95 -28.65,-282.17 -83.76,-329.55 -116.83,-85.97 -164.23,-305.31 -142.18,-658.01 20.94,-202.8 45.19,-363.73 70.54,-484.97 42.99,-197.29 63.93,-365.93 61.72,-503.7 -2.2,-137.79 2.21,-244.69 13.23,-322.95 9.92,-77.15 23.14,-142.18 38.58,-193.98 14.32,-50.71 33.06,-104.71 55.11,-160.93 20.94,-56.21 40.77,-148.79 57.31,-277.75 42.99,-322.94 82.68,-523.54 116.84,-600.69 47.4,-108.02 104.71,-218.23 170.84,-332.86 67.23,-113.53 121.24,-190.68 164.23,-229.26 99.19,-72.74 241.39,-79.36 426.56,-18.73 137.77,47.38 265.62,61.72 384.66,45.19 117.94,-17.63 208.31,-25.36 271.14,-23.14 62.82,2.2 132.26,26.44 209.41,71.64 78.27,45.19 137.77,99.19 180.76,160.91 42.99,62.83 73.85,130.06 90.39,203.91 30.87,124.54 33.06,283.26 6.61,473.94 -25.34,191.78 -35.26,347.18 -28.65,465.12 6.61,119.04 31.97,230.35 77.15,336.17 45.19,105.8 76.05,189.57 90.39,251.3 15.42,62.82 28.65,125.65 38.58,187.37 11.02,62.83 19.83,130.06 26.45,200.6 6.61,70.54 18.73,152.1 38.58,242.48 19.83,90.39 29.75,162.03 31.95,216.04 2.21,54.01 1.11,98.1 -3.3,132.26 -4.41,34.16 -8.82,66.13 -15.43,93.68 -6.61,28.67 -4.41,71.64 6.61,128.96 9.92,58.42 9.92,122.34 0,190.68 -11.02,69.44 -23.14,135.57 -36.36,200.6 -47.4,197.29 -66.14,337.27 -57.32,419.94 16.53,146.59 16.53,250.2 0,313.02 -17.63,61.73 -34.16,112.43 -48.5,152.1 -15.43,38.58 -33.06,92.58 -51.8,160.93 -19.84,69.43 -59.52,131.16 -120.14,187.37 -59.52,56.21 -116.84,72.74 -170.85,51.81 -54.01,-22.06 -88.17,-52.91 -103.61,-93.7 -14.32,-40.77 -27.55,-82.66 -38.58,-125.65 -11.02,-42.99 -23.14,-82.66 -38.58,-116.83 -15.43,-34.16 -41.89,-54.01 -80.46,-58.42 -69.43,-7.71 -105.8,-48.5 -110.22,-119.04 -4.41,-70.54 -3.3,-133.36 3.31,-187.37 6.61,-54.01 3.3,-109.12 -9.92,-164.23 -12.12,-56.22 -34.16,-110.22 -63.93,-162.03 -78.25,-133.36 -168.64,-206.11 -271.13,-219.33 -155.42,-22.04 -263.43,54.01 -322.95,225.94 -13.22,42.99 -23.14,100.31 -29.75,170.85 -6.61,71.64 -23.14,134.46 -51.81,190.68 -27.55,56.21 -57.31,103.61 -90.37,142.18 -31.97,38.58 -61.73,73.84 -90.39,106.9 -27.55,31.97 -46.28,71.64 -54.01,119.04 -35.26,185.17 -108.02,290.99 -220.43,316.33zm575.34 -2705.88c-85.96,232.55 -96.98,417.72 -31.97,555.51 42.99,77.15 98.1,119.04 167.54,122.34 124.55,13.23 199.5,3.31 222.65,-28.65 24.26,-31.97 51.81,-66.13 83.76,-103.61 33.06,-36.38 44.1,-92.58 35.28,-167.54 -7.72,-74.95 -14.33,-142.18 -18.75,-200.6 -4.4,-57.31 -25.34,-123.44 -61.72,-196.19 -36.38,-73.84 -60.62,-152.1 -73.84,-235.87 -13.23,-83.76 -22.04,-165.32 -26.45,-242.48 -16.53,-171.95 -55.11,-257.92 -115.73,-257.92 -42.99,0 -70.54,22.04 -80.46,67.24 -11.02,45.19 -18.75,104.71 -23.14,177.44 -4.41,223.74 -29.77,394.59 -77.17,510.32zm3725.43 2648.58c-12.12,-26.45 -14.33,-63.93 -5.51,-113.53 7.71,-49.6 13.22,-121.24 15.43,-216.04 2.2,-94.78 -19.84,-142.18 -67.24,-142.18 -38.58,0 -72.74,41.89 -100.29,125.65 -27.55,83.78 -66.13,137.77 -113.53,162.03 -47.38,23.14 -93.68,40.77 -138.87,50.7 -45.19,11.02 -90.39,22.04 -135.57,33.06 -45.19,11.02 -82.66,30.87 -112.43,60.62 -30.85,30.87 -78.25,61.73 -142.18,93.7 -65.03,33.06 -139.97,24.24 -225.94,-25.36 -85.97,-49.6 -144.4,-93.68 -174.15,-132.26 -30.87,-38.58 -52.91,-76.05 -68.34,-110.23 -15.43,-34.16 -30.85,-63.92 -48.5,-90.37 -16.53,-25.36 -45.19,-42.99 -83.76,-51.81 -85.97,-20.94 -144.38,-91.47 -174.15,-209.41 -30.87,-119.04 -60.62,-245.79 -90.37,-381.36 -30.87,-135.57 -50.71,-254.61 -61.73,-358.22 -11.02,-103.61 -22.04,-202.8 -35.26,-297.58 -29.77,-228.16 -71.64,-364.83 -122.35,-410.03 -51.8,-45.19 -82.66,-108 -90.37,-189.57 -22.04,-207.21 -33.06,-354.91 -33.06,-443.09 0,-88.17 25.34,-182.96 74.94,-284.36 49.6,-100.29 73.85,-201.7 73.85,-303.09 0,-101.41 -7.71,-178.56 -23.14,-232.57 -14.33,-54.01 -26.45,-97 -35.28,-128.96 -8.81,-33.06 -12.12,-68.33 -12.12,-106.9 -4.41,-68.34 12.12,-171.95 50.7,-309.72 22.04,-73.85 39.69,-141.08 51.81,-203.9 13.22,-61.73 26.45,-116.84 38.58,-164.24 47.4,-171.93 168.64,-259.01 362.61,-259.01l90.39 0c115.73,0 219.33,-36.38 309.72,-109.12 42.99,-29.77 90.37,-54.01 142.18,-71.64 51.8,-16.53 94.78,-15.43 128.96,3.3 34.16,19.84 81.55,26.45 142.18,19.84 60.62,-6.61 123.44,-29.75 190.68,-70.54 66.13,-41.89 145.48,-69.44 235.87,-84.86 90.37,-14.33 185.17,-9.92 283.26,13.22 99.19,24.24 168.64,63.93 207.21,119.04 38.58,56.21 69.44,91.49 93.68,106.9 23.14,15.43 46.28,28.67 67.23,41.89 82.66,60.62 131.16,189.58 148.81,387.97 13.22,167.54 -8.82,327.35 -63.93,477.26 -8.82,30.85 -24.26,78.25 -46.3,142.18 -20.93,65.03 -47.38,132.26 -80.45,203.9 -31.97,70.54 -48.5,137.79 -48.5,199.5 0,62.82 -3.31,122.34 -8.82,178.56 -6.61,55.11 -25.36,106.9 -55.11,154.3 -73.85,116.83 -218.23,170.84 -433.16,162.03 -185.17,0 -298.7,-30.87 -341.69,-90.39 -22.04,-30.87 -34.16,-69.44 -36.38,-116.83 -2.2,-47.4 -5.51,-111.33 -12.12,-193.99 -6.61,-81.56 -31.97,-156.52 -74.95,-225.94 -42.99,-68.34 -101.39,-85.97 -174.15,-50.71 -47.38,25.36 -81.56,112.43 -103.61,261.22 -20.94,148.79 -18.73,297.6 6.63,448.59 26.44,151.01 37.46,242.49 35.26,274.46 -2.2,31.97 -6.61,63.93 -15.43,93.68 -56.21,202.8 -65.03,488.28 -26.45,858.6 30.87,271.14 97,417.74 200.6,439.78 94.78,16.53 171.95,-33.06 232.57,-148.79 51.8,-108.02 47.38,-329.56 -13.23,-665.72 -51.8,-262.32 -8.81,-400.11 128.96,-413.33 60.62,-7.71 136.67,-9.92 229.26,-5.51 92.58,4.41 175.25,-3.31 245.79,-23.14 70.54,-18.75 146.59,-18.75 225.96,0 79.35,19.83 145.48,57.31 197.29,113.51 51.8,55.12 51.8,163.13 0,322.95 -103.61,318.53 -122.35,596.28 -58.42,832.15 8.82,39.69 22.04,92.58 38.58,162.03 17.63,68.34 33.06,145.49 45.19,229.26 13.23,83.78 22.04,168.64 26.45,254.61 4.41,87.07 -2.2,164.23 -19.83,232.55 -29.77,159.83 -110.23,239.18 -242.49,239.18 -131.16,0 -222.65,-4.4 -274.44,-13.22 -51.81,-7.71 -83.78,-25.36 -97,-50.7zm1053.69 -1234.47l-6.61 -328.45c0,-60.62 2.2,-116.83 6.61,-168.64 4.41,-56.21 0,-124.55 -13.22,-206.11 -20.94,-142.18 -30.87,-246.89 -28.65,-313.02 2.2,-67.24 2.2,-121.24 0,-162.03 -2.21,-40.77 -7.72,-78.25 -16.53,-112.43 -12.14,-51.8 -44.1,-134.46 -93.7,-245.79 -49.6,-112.41 -73.84,-232.55 -73.84,-361.51 0,-128.96 27.55,-232.57 83.76,-309.72 51.81,-78.25 71.64,-157.62 58.42,-239.18 -13.23,-81.56 -23.14,-169.74 -29.77,-262.32 -5.51,-92.58 -6.61,-187.37 -2.2,-283.26 3.31,-96.98 25.36,-190.68 63.93,-281.05 94.78,-220.45 284.36,-325.15 568.73,-316.33 176.35,3.3 329.55,20.94 458.51,50.7 128.96,30.87 223.74,44.09 284.36,39.67 59.52,-4.4 152.1,-26.45 277.75,-65.03 180.76,-68.33 324.05,-65.03 432.07,13.23 29.75,20.94 59.5,37.48 87.06,48.5 28.67,9.92 52.91,26.45 74.95,48.5 72.75,81.56 94.8,260.11 63.93,535.66 -8.82,81.56 -16.53,163.13 -25.36,245.79 -22.04,192.88 -22.04,337.27 0,432.06 20.94,94.8 33.06,177.46 35.28,249.1 2.2,70.54 -1.1,134.47 -9.92,190.68 -25.36,124.55 -74.95,187.37 -148.79,187.37 -63.93,-4.41 -110.23,-25.34 -138.88,-61.72 -27.55,-36.38 -49.6,-77.15 -67.23,-122.35 -17.63,-45.19 -35.28,-87.06 -55.11,-123.44 -18.75,-36.38 -61.73,-55.11 -125.65,-55.11 -189.58,0 -315.23,-19.84 -378.06,-60.62 -62.82,-40.79 -116.83,-65.03 -164.23,-71.66 -47.38,-6.61 -92.58,-1.1 -135.57,16.55 -90.37,38.58 -143.28,110.22 -158.71,212.72 -15.43,103.61 -24.24,193.98 -28.65,271.13 -4.41,78.27 -4.41,148.81 0,213.82 8.82,149.91 37.48,235.88 87.07,254.61 49.6,19.84 91.49,22.04 125.65,6.61 34.16,-15.42 69.44,-33.06 103.61,-55.11 103.61,-68.33 209.41,-101.39 319.64,-100.29 109.12,2.2 191.78,46.28 245.79,133.36 52.89,85.97 76.05,168.64 67.23,248 -8.82,79.35 -16.53,158.71 -22.04,235.87 -6.61,77.15 -16.53,151.01 -29.75,219.33 -60.63,266.73 -185.17,318.54 -374.75,155.42 -244.69,-17.63 -397.89,13.22 -458.51,90.37 -12.14,20.94 -25.36,66.14 -38.58,135.57 -13.23,68.34 -15.43,142.18 -6.63,219.35 22.04,202.8 119.04,309.7 290.99,322.94 112.41,8.81 213.82,-6.61 306.41,-45.2 92.58,-38.58 154.3,-81.56 184.07,-128.95 26.45,-51.81 58.41,-80.46 97,-87.07 38.58,-6.61 73.84,-13.23 103.61,-19.84 29.75,-6.61 60.62,-9.92 90.37,-9.92 29.77,0 60.62,4.41 90.39,13.23 77.15,26.45 123.44,85.97 138.87,180.76 15.43,94.78 5.51,180.76 -28.65,259.01 -35.28,77.17 -57.32,146.59 -68.34,209.43 -11.02,62.82 -20.93,109.12 -28.65,138.87 -8.81,29.77 -34.16,68.34 -74.95,113.53 -40.77,45.19 -72.74,82.66 -96.98,112.43 -23.16,29.75 -60.63,24.24 -112.43,-18.75 -94.78,-73.84 -209.41,-30.85 -342.78,128.96 -34.16,47.4 -70.54,81.56 -109.12,102.51 -38.58,22.04 -99.19,30.85 -180.76,26.45 -82.66,-4.41 -146.59,-26.45 -193.99,-65.03 -47.38,-38.58 -90.37,-77.15 -128.95,-115.73 -65.03,-81.56 -176.36,-112.43 -336.17,-90.39 -94.78,13.22 -171.93,-28.65 -232.57,-123.45 -13.22,-12.12 -22.04,-36.36 -28.65,-70.54 -6.61,-34.16 -14.32,-72.74 -23.14,-115.73 -29.77,-112.43 -57.32,-184.07 -80.46,-217.13 -24.24,-31.97 -36.38,-73.84 -38.58,-125.65 -2.2,-51.8 -7.71,-106.9 -16.53,-164.23 -8.82,-58.42 -15.43,-101.39 -18.73,-130.06 -4.41,-27.55 -1.11,-60.62 8.81,-99.19 11.02,-39.67 16.53,-82.66 16.53,-130.06zm3125.82 -3499.47c214.94,-85.96 331.76,-94.78 348.3,-26.45 108.02,-25.34 187.38,6.63 239.18,97 17.63,29.77 50.7,92.58 100.29,187.38 49.61,94.78 103.61,196.19 162.03,303.09 57.32,108.02 112.43,209.43 164.23,304.21 51.81,94.78 85.97,157.62 103.61,190.68 16.53,31.97 38.58,50.7 63.93,54.01 26.45,4.41 51.81,-2.2 78.25,-18.75 55.12,-42.97 71.66,-108 48.5,-193.98 -24.24,-85.97 -35.26,-154.3 -33.06,-202.8 2.21,-49.6 7.72,-95.9 16.53,-138.88 25.36,-121.24 29.77,-218.23 13.23,-290.97 -17.65,-73.85 -26.45,-142.18 -26.45,-207.21 0,-128.96 105.8,-192.89 316.33,-192.89 42.99,0 92.58,1.11 148.79,3.31 56.21,1.1 139.98,-2.2 252.4,-13.22 111.33,-11.02 209.43,18.73 293.19,90.37 83.78,70.54 111.33,197.29 80.46,378.06 -38.58,244.67 -55.11,410.01 -50.7,493.77 3.3,83.78 5.51,162.03 5.51,235.87 0,77.17 -12.14,191.79 -38.58,341.69 -47.4,266.73 -59.52,456.31 -38.58,568.73 17.63,99.21 26.44,171.95 26.44,219.35l0 103.61c0,13.22 3.31,40.77 12.14,83.76 8.81,42.99 6.61,87.07 -6.63,132.26 -12.12,45.2 -14.32,93.68 -5.51,145.49 7.72,51.8 -2.2,111.32 -33.06,177.44 -29.75,67.24 -44.09,139.98 -41.87,219.35 2.2,80.45 -3.31,152.1 -16.53,217.13 -12.14,63.92 -5.51,139.97 19.83,225.94 38.58,133.36 6.61,368.14 -97,703.2 -16.53,82.66 -44.09,134.47 -80.45,158.71 -36.38,23.14 -63.93,41.89 -80.46,55.11 -17.63,12.12 -30.87,40.79 -38.58,83.78 -22.04,85.96 -67.23,124.54 -135.57,115.73 -91.49,-12.12 -164.23,-102.51 -220.43,-271.14 -77.17,-232.57 -139.98,-368.12 -187.38,-406.72 -47.38,-38.58 -82.66,-92.58 -105.8,-160.91 -24.26,-69.44 -44.09,-139.98 -61.73,-213.82 -34.16,-180.76 -69.43,-284.36 -103.61,-313.03 -34.16,-27.55 -61.72,-82.66 -83.76,-164.23 -20.94,-82.66 -42.99,-139.97 -65.03,-175.25 -20.94,-34.16 -41.87,-72.74 -60.62,-115.73 -19.84,-42.99 -39.67,-85.97 -61.72,-128.96 -56.22,-108.02 -109.12,-155.4 -160.93,-142.18 -30.85,8.82 -50.7,46.3 -61.72,112.43 -11.02,67.23 -20.94,147.69 -28.65,242.48 -26.45,275.56 -69.44,473.94 -130.06,594.08 39.67,112.43 68.33,214.94 88.17,307.52 18.73,92.58 14.33,201.7 -13.22,328.45 -28.67,127.85 -50.71,229.26 -68.34,307.51 -16.53,77.15 -35.26,145.49 -54.01,202.8 -19.84,58.42 -42.99,102.51 -68.33,132.27 -25.36,30.85 -58.42,41.87 -97,36.36 -38.58,-6.61 -63.93,-18.73 -77.15,-36.36 -13.23,-16.53 -26.45,-34.18 -38.58,-50.71 -30.87,-56.21 -82.68,-96.98 -155.42,-123.44 -72.74,-25.36 -124.55,-58.42 -155.4,-97 -29.77,-38.58 -49.61,-83.76 -57.32,-135.57 -8.82,-51.8 -14.33,-106.92 -16.53,-167.54 -2.2,-60.62 -17.63,-125.65 -45.19,-197.29 -27.55,-70.54 -41.89,-130.06 -41.89,-177.44 0,-47.4 4.41,-89.29 13.22,-125.65 7.72,-36.38 16.53,-73.85 25.36,-110.23 8.82,-36.36 0,-93.68 -25.36,-170.84 -51.8,-159.81 -37.46,-290.97 45.2,-394.58 59.52,-85.97 85.97,-158.73 77.15,-219.35 -26.45,-124.54 -74.95,-206.1 -148.79,-244.69 -34.18,-22.04 -51.81,-47.38 -51.81,-78.25 0,-63.93 -8.82,-112.41 -28.65,-145.49 -19.84,-31.95 -20.94,-73.84 -3.31,-125.65 17.63,-51.8 15.43,-94.78 -6.61,-128.95 0,-4.41 -5.51,-48.5 -16.53,-132.27 -9.92,-83.76 -20.94,-191.78 -31.97,-322.94 -11.02,-131.16 -22.04,-273.34 -35.26,-426.55 -13.23,-152.1 -22.04,-299.8 -25.36,-441.98 -17.63,-327.35 -14.33,-519.13 8.82,-575.35 24.24,-55.11 60.62,-95.88 110.22,-122.34 49.6,-25.36 102.51,-42.99 158.71,-51.81 120.14,-13.22 219.33,-4.4 296.48,26.45zm5137.32 948.99c11.02,25.36 14.33,54.01 9.92,83.78 -4.41,29.75 -34.16,81.56 -90.37,155.4 -56.22,72.75 -89.29,151.01 -100.31,235.88 -9.92,83.76 -13.22,152.09 -8.81,206.1 3.3,54.01 3.3,100.31 0,138.88 -4.41,94.78 -56.22,159.81 -155.42,193.98 -85.97,34.18 -153.2,31.97 -200.6,-6.61 -47.38,-38.58 -85.96,-89.27 -115.73,-152.1 -30.87,-61.72 -52.91,-115.73 -68.33,-160.91 -14.33,-45.2 -39.69,-70.54 -73.85,-74.95 -60.62,-12.12 -106.92,-5.51 -138.87,19.84 -31.97,25.34 -57.32,47.38 -73.85,65.03 -35.26,34.16 -70.54,57.31 -106.92,70.54 -36.36,13.22 -66.13,26.44 -87.07,38.58 -42.97,30.85 -60.62,80.45 -51.8,148.79 17.63,133.36 165.32,336.17 445.29,607.3 51.8,51.81 113.51,106.92 184.05,167.54 71.66,60.62 141.08,128.96 210.52,207.21 154.3,185.17 240.28,393.48 257.91,626.05 17.65,236.96 -17.63,443.08 -103.61,619.42 -68.33,142.2 -149.89,234.78 -244.69,277.75 -73.84,39.69 -123.44,89.29 -148.79,152.1 -26.45,62.83 -45.19,108.02 -58.42,135.57 -13.22,28.65 -39.67,51.81 -80.45,71.64 -40.79,18.75 -87.07,26.45 -138.88,22.04 -51.8,-4.4 -100.29,-14.32 -145.49,-28.65 -45.19,-15.43 -85.96,-33.06 -122.34,-51.8 -37.48,-19.84 -67.23,-30.87 -90.39,-35.28 -24.24,-4.41 -46.28,3.31 -68.33,22.04 -20.94,19.84 -42.99,39.67 -63.93,61.73 -65.03,63.92 -123.44,89.27 -175.25,73.84 -50.7,-14.33 -111.32,-39.67 -180.76,-73.84 -68.34,-34.18 -135.57,-77.17 -199.5,-128.96 -232.55,-180.76 -313.02,-365.93 -239.18,-555.51 47.4,-125.65 100.31,-213.82 157.62,-265.63 58.42,-50.7 104.72,-77.15 138.88,-77.15 56.21,0 93.68,20.94 113.53,61.72 19.83,40.79 35.26,74.95 48.5,103.61 13.22,27.55 27.55,49.61 45.19,67.24 17.63,17.63 44.09,34.16 80.46,51.8 36.36,17.63 76.05,27.55 120.14,31.97 106.9,8.82 188.47,-34.16 244.69,-128.96 56.21,-94.78 78.25,-198.39 65.02,-309.7 -30.85,-202.82 -73.84,-288.78 -128.95,-257.92 -47.4,29.77 -105.82,30.87 -175.25,2.21 -68.34,-27.55 -104.72,-63.93 -109.12,-109.12 -4.41,-45.2 -13.23,-89.29 -26.45,-132.27 -12.12,-42.97 -27.55,-83.76 -45.2,-123.44 -38.58,-98.1 -72.74,-152.1 -102.49,-160.93 -35.28,-8.81 -81.56,-13.22 -138.88,-13.22 -58.42,0 -122.34,-37.48 -190.68,-112.43 -69.43,-76.05 -119.04,-170.84 -148.79,-284.36 -29.77,-114.63 -56.21,-213.82 -77.15,-297.58 -22.04,-83.78 -40.79,-148.81 -58.42,-196.19 -17.63,-47.4 -31.97,-97 -45.19,-148.81 -42.99,-164.23 -45.19,-374.73 -6.61,-632.66 25.34,-151.01 72.74,-283.26 142.18,-397.89 68.33,-113.53 146.59,-227.04 232.55,-338.37 163.13,-220.43 314.13,-372.54 451.9,-458.51 137.77,-87.07 243.59,-94.78 316.33,-26.45 65.03,56.22 134.47,78.27 210.52,68.34 74.95,-11.02 134.47,-23.16 177.44,-36.38l115.74 -25.36c73.84,-17.63 147.69,-15.42 222.63,6.63 76.05,20.93 143.3,94.78 203.91,219.33 29.75,65.03 61.72,121.24 93.68,167.54 31.97,47.38 63.93,92.58 93.68,136.67 63.93,102.49 102.51,187.37 112.43,254.6 11.02,66.13 26.45,114.63 45.19,145.49 19.84,29.75 35.28,57.32 45.19,83.76z"/>
   </g>
  </g>
 </g>
</svg>
