<?xml version="1.0" encoding="UTF-8"?>
<!DOCTYPE svg PUBLIC "-//W3C//DTD SVG 1.1//EN" "http://www.w3.org/Graphics/SVG/1.1/DTD/svg11.dtd">
<!-- Creator: CorelDRAW 2020 (64 Bit) -->
<svg xmlns="http://www.w3.org/2000/svg" xml:space="preserve" width="105.448mm" height="42.9308mm" version="1.1" style="shape-rendering:geometricPrecision; text-rendering:geometricPrecision; image-rendering:optimizeQuality; fill-rule:evenodd; clip-rule:evenodd"
viewBox="0 0 2730.57 1111.69"
 xmlns:xlink="http://www.w3.org/1999/xlink"
 xmlns:xodm="http://www.corel.com/coreldraw/odm/2003">
 <defs>
  <style type="text/css">
   <![CDATA[
    .fil1 {fill:#193840}
    .fil0 {fill:#BFDE42}
    .fil2 {fill:#42B4CA;fill-rule:nonzero}
   ]]>
  </style>
 </defs>
 <g id="Camada_x0020_1">
  <metadata id="CorelCorpID_0Corel-Layer"/>
  <g id="_1962058747952">
   <path class="fil0" d="M2644.54 550.2c3.43,15.72 4.47,31.94 2.66,48.29 -1.44,12.97 -2.62,25.96 -3.64,38.96 -1.3,16.58 -3.54,33.09 -6.7,49.41 -0.19,0.99 -0.4,1.98 -0.62,2.96 -0.69,3.02 -1.43,6.02 -2.23,9 43.24,17.88 71.04,55.89 78.6,102.38 5.5,33.8 2.02,67.69 -11.99,99.07 -1.97,4.4 -4.6,10.53 -5.45,15.33 -1.89,10.73 -3.94,21.42 -6.68,31.98 -0.27,1.04 -0.56,2.07 -0.86,3.1 -6.35,21.43 -18.68,39.73 -33.51,56.16 -4.57,5.07 -9.1,10.21 -13.43,15.48 -24.92,31.53 -60.95,42.98 -95.98,37.02 -9.41,9.45 -20,17.69 -31.77,24.15 -25.44,14.34 -54.02,18.05 -82.79,16.51 -32.33,-1.74 -63.03,-11.75 -88.34,-32.36 -6.26,-5.09 -12.38,-10.36 -18.33,-15.8 -48.88,4.2 -92.47,-18.25 -120.85,-58.08 -5.4,13.04 -13.07,25.19 -23.82,35.95 -16.06,16.06 -35.53,28.26 -57.31,34.86 -11.51,3.49 -23.37,5.8 -35.32,7.19 -43.56,5.67 -87.32,-3.74 -116.11,-38.86 -12.12,-13.48 -21.25,-28.95 -26.59,-45.85 -0.61,-0.68 -1.21,-1.36 -1.81,-2.05 -4.89,-1.2 -9.63,-2.71 -14.23,-4.5 -9.16,28.68 -24.19,54.77 -49.78,72.81 -18.68,13.17 -39.82,22.07 -62.46,25.55 -18.34,2.83 -36.95,2.33 -55.15,-1.26 -43.21,-8.52 -81.96,-29.98 -101.7,-71.14 -7.31,-15.24 -13.44,-30.84 -16.08,-47.64 -0.84,-5.34 -1.41,-10.71 -1.7,-16.1 -18.53,36.82 -47.8,66.43 -91.03,79.76 -9.3,2.87 -18.63,5.6 -28.03,8.12 -32.16,35.05 -73.68,60.33 -124.01,53.88 -15.91,-2.04 -30.57,-7.42 -43.52,-15.51 -38.48,8.49 -78.84,-0.34 -115.58,-12.74 -1.79,-0.6 -3.55,-1.26 -5.3,-1.97 -40.14,-16.32 -66.36,-49.96 -79.12,-90.58 -1.6,-5.1 -3.76,-12.78 -6.17,-17.67 -1.39,-2.34 -2.86,-4.78 -4.51,-7.09 -0.11,-0.1 -0.22,-0.2 -0.33,-0.3 -20.38,-18.21 -37.34,-39.36 -46.27,-64.12 -11.67,32.82 -28.28,63.9 -51.41,90.15 -18.96,21.52 -40.25,40.96 -64.3,56.64 -11.83,7.72 -23.66,15.46 -35.47,23.21 -1.88,2.62 -3.76,5.26 -5.57,7.93 -1.6,2.36 -3.3,4.64 -5.11,6.84 -27.6,33.56 -66.48,52.44 -110.03,52.44 -45.51,0 -89.73,-12.63 -122.83,-45.21 -3.02,-2.98 -5.82,-6.13 -8.41,-9.49 -10.37,-13.44 -18.6,-28.29 -25.87,-43.57 -4.16,-6.73 -9.28,-12.18 -15.92,-16.7 -43.33,-29.51 -69.33,-73.63 -78.09,-124.81 -0.65,-3.04 -1.22,-6.1 -1.71,-9.16 -4.57,18.82 -11.57,36.97 -21.81,53.74 -15.93,26.1 -36.15,49.53 -62.55,65.39 -2.6,4.44 -5.38,8.77 -8.29,13.07 -0.4,0.59 -0.8,1.17 -1.21,1.74 -21.89,30.73 -52.86,51.44 -88.72,62.47 -29.97,9.21 -61.39,13.27 -92.71,12.73 -22.87,-0.39 -45.77,-1.25 -68.3,-5.58 -29.35,-5.63 -55.89,-19.27 -78.2,-39.06 -9.92,-8.79 -18.99,-18.41 -27.16,-28.76 -34.81,-5.43 -65.45,-24.17 -83.8,-56.17 -14.24,-24.85 -20.34,-53.2 -15.71,-81.55 0.04,-2.5 -0.21,-5.3 -0.37,-7.72 -0.12,-1.97 -0.19,-3.94 -0.19,-5.91 0,-12.58 0.19,-25.15 0.65,-37.72 1.33,-36.2 16.88,-68.97 43.67,-93.28 1.61,-1.46 3.25,-2.85 4.96,-4.19 16.67,-13.13 34.75,-24.49 54.22,-32.23 -35.23,-33.23 -60.38,-74.09 -71.34,-121.84 -2.83,-12.31 -5.34,-25.99 -8.98,-38.5 -7.73,-7.37 -14.51,-15.73 -20.79,-24.7 -25.64,-35.52 -31.58,-79.47 -19.01,-121.17 3.86,-12.8 7.52,-25.66 11.38,-38.46 0.61,-2.02 0.73,-4.9 0.73,-6.98 0,-9.03 -0.41,-18.07 -1.31,-27.06 -1.49,-15.04 -2.22,-30.16 -2.22,-45.27 0,-1.76 0.05,-3.52 0.15,-5.28 2.77,-48.77 21.27,-92.93 52.48,-130.32 30.63,-36.69 70.09,-62.03 116.86,-72.38 12.56,-3.19 25.14,-6.25 37.86,-8.75 2.13,-0.43 5.68,-2.32 7.51,-3.35 28.52,-16.16 60.3,-31.72 93.79,-31.72 16.19,0 32.19,1.6 47.7,6.38 0.46,0.07 0.92,0.12 1.37,0.18 2.96,0.36 6.38,0.3 9.35,0.3 13.04,0 26.03,1.3 38.88,3.43 58.27,8.41 106.6,43.9 145.87,85.94 11.78,12.61 22.39,26.12 31.48,40.5 1.77,-1.6 3.55,-3.18 5.35,-4.74 12.91,-11.2 26.08,-22.09 39.21,-33.03 2.59,-2.45 5.02,-5.12 7.06,-8.04 11.77,-16.82 26.17,-31.54 42.35,-44.14 48.28,-39.46 107.83,-55.34 168.17,-35.08 1.03,0.34 2.05,0.71 3.07,1.09 21.74,8.15 45.11,15.2 68.25,17.76 39.83,4.39 79.42,15.86 110.44,42.31 17.22,14.69 32.85,31.07 46.53,49.11 1.69,2.23 3.36,4.49 4.98,6.75 19.79,-30.14 48.26,-54.91 79.53,-74.87 51.22,-32.7 111.78,-47.93 169.35,-23.89 5.82,-0.72 11.67,-1.15 17.64,-1.15 11.63,0 22.77,1.9 33.47,5.34 26.57,-5.89 54.01,-8.6 80.69,-2.87 8.49,-1.54 17.04,-2.47 25.8,-2.47 20.72,0 39.98,5.76 58.18,15.11 3.32,0.59 6.63,1.21 9.92,1.94 32.65,7.13 57.1,27.55 73.16,54.71 13.99,-16.89 32.46,-29.42 53.62,-37.29 0.37,-0.14 0.74,-0.27 1.11,-0.4 0.76,-0.41 1.59,-1 2.27,-1.47 5.91,-4.18 11.58,-8.74 17.18,-13.32 4.82,-3.94 9.51,-8.06 14.08,-12.29 15.86,-14.68 34.91,-25.34 55.54,-31.68 2.9,-0.89 5.83,-1.64 8.81,-2.25 31.83,-6.48 65.22,-9.3 96.62,1.06 18.9,6.24 37.05,14.87 52.49,27.62 0.37,0.31 0.74,0.62 1.11,0.93 0.37,0.25 0.75,0.5 1.14,0.75 1.62,0.07 3.24,0.19 4.87,0.35 15.89,1.55 31.25,3.81 45.95,8.88l17.06 -1.1c1.99,-0.13 3.98,-0.19 5.97,-0.19 39.71,0 79.96,7.16 112.32,31.78 11.28,8.58 22.12,17.74 31.93,27.95 37.54,-60.27 102.18,-87.9 175.37,-85.97 33.67,0.89 67.56,3.74 100.42,11.46 6.58,1.55 16.55,4.19 23.57,4.71 7.1,-0.92 17.94,-4.52 25.06,-6.76 53.81,-19.61 111.1,-20.14 159.52,13.7 15.82,6.51 29.95,16.14 42.09,28.28 1.25,1.26 2.47,2.54 3.65,3.86 40.36,45.25 40.76,110.82 34.45,167.61 -1.62,14.59 -2.89,29.21 -4.52,43.8 -1.18,10.51 -3.97,35.65 -1.73,45.84 4.62,20.38 7.89,41.11 8.54,62.03 0.53,17.12 -0.19,34.3 -2.84,51.23 -0.22,1.4 -0.47,2.79 -0.75,4.18 -9.68,47.53 -37.82,88.01 -81.72,102.37z"/>
   <path class="fil1" d="M2194.58 337.62c3.37,-5.63 5.38,-11.59 4.29,-18.29 -2.66,-16.43 -4.54,-32.99 -5.63,-49.6 -1.17,-17.85 -1.15,-35.78 -0.43,-53.65 0.84,-21.11 5.53,-41.58 13.86,-61 23.64,-55.09 72.59,-76.59 130.52,-75.07 29.18,0.77 59.37,3.14 87.84,9.83 10.69,2.51 30.22,7.12 41.19,6.32 12.36,-0.91 29.53,-6.27 41.65,-10 35.07,-13.06 73.17,-16.37 105.02,6.56 2.58,1.86 5.46,3.57 8.41,4.81 9.24,3.36 17.26,8.73 24.22,15.69 0.44,0.44 0.81,0.83 1.22,1.29 26.1,29.27 23.09,83.16 19.06,119.38 -1.62,14.57 -2.88,29.17 -4.52,43.74 -2.11,18.83 -4.8,47.87 -0.57,66.51 3.72,16.4 6.5,33.38 7.03,50.21 0.41,13.21 -0.08,26.62 -2.12,39.69 -0.08,0.49 -0.15,0.9 -0.25,1.39 -6.04,29.63 -22.85,58.2 -56.91,58.2 -0.75,0 -1.39,-0.02 -2.14,-0.07 -18.29,-1.26 -35.39,-8.05 -46.97,-22.75 -0.13,-0.16 -0.24,-0.3 -0.36,-0.47 -6.77,-8.94 -12.07,-18.79 -16.14,-29.23 -1.55,-3.97 -3.16,-8.04 -4.96,-11.98 -25.59,-0.07 -60.71,-1.71 -82.4,-15.79 -3.93,-2.55 -11.82,-7.37 -16.58,-8.03 -2.7,-0.38 -5.22,-0.26 -7.75,0.8 -6.46,2.72 -8.54,6.97 -9.56,13.8 -2.25,15.04 -3.94,30.2 -4.8,45.38 -0.65,11.45 -0.71,22.91 -0.01,34.36 0.21,3.44 0.74,10.43 1.74,16.34 2.21,-1.15 4.38,-2.4 6.46,-3.76 22.45,-14.72 47.33,-23.33 74.36,-22.93 29.32,0.44 54.17,13.36 69.68,38.46 11.88,19.22 18.93,41.1 16.41,63.87 -1.51,13.63 -2.75,27.29 -3.83,40.95 -1.12,14.25 -3.05,28.45 -5.76,42.48 -0.07,0.35 -0.13,0.64 -0.21,0.99 -6.2,27.26 -18.89,57.31 -48.16,66.1 -21.96,6.59 -42.83,-1.99 -60.3,-14.82 -13.58,-0.44 -35.11,-0.26 -43.87,3.9 -1.07,3.85 -1.9,8.48 -2.5,11.61 -1.87,9.74 -1.89,19.91 -0.81,29.75 1.82,16.5 5.24,28.46 23.26,29.86 13.83,1.07 27.28,-0.38 40.14,-5.74 4,-1.67 14.9,-6.68 18.1,-10.44 8.28,-15.15 20.93,-26.9 38.59,-29.92 5.65,-0.97 11.33,-1.99 16.93,-3.23 7.47,-1.66 15.17,-2.51 22.82,-2.51 8.41,0 16.85,1.25 24.91,3.64 0.44,0.13 0.81,0.25 1.25,0.4 25.93,8.89 40.95,29.9 45.29,56.55 3.55,21.81 1.65,43.48 -7.4,63.73 -4.21,9.41 -8.13,19.75 -9.92,29.94 -1.58,9.03 -3.32,18.24 -5.62,27.13 -0.1,0.37 -0.18,0.67 -0.29,1.03 -3.56,12.02 -11.75,22.98 -20.06,32.18 -5.54,6.14 -11,12.39 -15.79,18.25 -16.85,21.68 -42.99,18.14 -62.58,2.95 -5.66,2.6 -14.78,12.48 -18.46,16.78 -7.83,10.63 -17.35,19.99 -28.44,26.01 -14.66,8.38 -32.71,9.65 -49.24,8.76 -19.06,-1.03 -37.45,-6.29 -52.45,-18.5 -8.79,-7.15 -17.27,-14.7 -25.29,-22.7 -0.87,-0.87 -1.56,-1.65 -2.33,-2.61 -5.89,-7.39 -23.37,-5.75 -31.22,-4.67 -29.67,4.11 -53.93,-9.59 -70.23,-33.61 -6.12,-7.32 -9.17,-16.33 -11,-25.77 -1.25,-6.47 -2.55,-12.93 -3.87,-19.38 -1.92,-7.26 -5.85,-21.89 -9.49,-27.86 -8.31,-11.41 -11.87,-24.89 -12.47,-38.88 -0.37,-8.64 -1.31,-17.29 -2.61,-25.84 -1.2,-7.86 -2.49,-15.8 -3.42,-23.69 -1.44,-9.89 -0.2,-19.88 2.28,-29.51 0.05,-0.2 0.1,-0.37 0.15,-0.57 1.33,-4.8 1.8,-9.84 1.81,-14.19l-1.18 -58.42c-0,-0.22 -0.01,-0.4 -0.01,-0.62 0,-10.85 0.4,-21.71 1.28,-32.52 0.76,-9.3 -0.69,-20.24 -2.1,-29.43 -2.97,-19.44 -6.09,-41.71 -5.44,-61.39 0.28,-8.62 0.49,-17.49 0.03,-26.11 -0.25,-4.66 -0.83,-9.38 -2,-13.9 -0.06,-0.24 -0.11,-0.45 -0.17,-0.69 -2.59,-11.05 -9.02,-25.22 -13.87,-36.09 -2.59,17.79 -5.85,35.48 -9.88,53.01 -5.7,24.82 -13.59,49.76 -25.1,72.53 -0.11,0.22 -0.21,0.41 -0.32,0.62 -18.28,34.24 -45.07,60.63 -77.2,80.55 0.62,1.39 1.24,2.77 1.86,4.15 5.21,11.54 10,23.26 14.77,34.99 0.19,0.46 0.34,0.86 0.51,1.34 7.43,20.97 16.68,49.34 16.68,71.73 0,6.26 -0.11,15.31 1.14,21.44 0.15,0.74 0.32,1.63 0.52,2.53 3.58,2.46 7.09,5.14 10.46,7.76 0.19,0.15 0.35,0.28 0.54,0.43 11.44,9.32 18.55,22.42 22.82,36.34 3.99,12.99 5.88,26.51 5.88,40.09 0,21.74 -1.4,50.93 -17.73,67.25 -8.81,8.81 -19.41,15.7 -31.39,19.33 -8.32,2.52 -16.85,4.07 -24.9,4.98 -22.02,2.93 -46.79,1.04 -61.28,-17.63 -9.66,-10.33 -16.11,-22.81 -16.97,-37.2 -0.03,-0.48 -0.07,-1 -0.13,-1.55 -10.82,-5.81 -17.69,-16.11 -21.54,-27.96 -36.99,4.46 -60.79,-21.96 -72.35,-55.18 -0.76,-1.98 -1.47,-3.99 -2.14,-6.01 -0.18,0.88 -0.37,1.75 -0.59,2.62 -2.14,9.29 -5.79,18.36 -11.03,25.44 -3.64,5.2 -7.62,10.06 -12.11,14.55 -0.58,0.58 -1.15,1.11 -1.73,1.62 -0.14,0.8 -0.23,1.64 -0.28,2.23 -1.08,11.54 -2.81,23.16 -5.86,34.37 -4.58,20.76 -12.63,44.41 -30.7,57.15 -10.84,7.64 -22.97,12.9 -36.11,14.92 -11.23,1.73 -22.53,1.39 -33.67,-0.81 -23.21,-4.58 -46.85,-14.45 -57.69,-37.05 -4.48,-9.35 -9.1,-20.11 -10.72,-30.39 -1.14,-7.29 -1.48,-14.59 -0.85,-21.95 0.48,-5.62 1.16,-11.24 1.99,-16.82 0.61,-4.1 0.52,-8.67 0.3,-12.8 -0.4,-7.48 -2.56,-16.39 -4.15,-23.09 -4.18,-16.21 -6.06,-33.35 -6.83,-50.04 -0.01,-0.15 -0.01,-0.27 -0.02,-0.42l-0.98 -29.79c-0.01,-0.36 -0.02,-0.66 -0.02,-1.02 0,-12.54 6.37,-23.57 13.43,-33.05 -13.76,-7.05 -23.82,-19.22 -23.82,-35.96 0,-10.04 1.53,-21.55 2.49,-31.59 1.58,-16.45 0.19,-34.53 -1.7,-50.9 -2.39,-20.71 -4.49,-41.6 -5.44,-62.42 -0.67,-8.56 -2.95,-31.98 -6.99,-41.33 -13.92,-7.68 -25.2,-18.89 -29.52,-34.57 -8.27,27.73 -22.6,53.22 -48.05,66.06 -0.85,0.43 -1.58,0.76 -2.46,1.11 -4.01,1.6 -8.06,3.53 -12.02,5.51 -6.2,6.7 -12.6,13.22 -19.22,19.51 22.55,11.21 36.87,31.04 36.87,56.88 0,3.63 0.17,12.42 1.51,15.68 2.91,5.91 5.88,11.79 8.92,17.64 11.69,22.54 13.2,47.46 7.89,72.03 -3.68,17.05 -6.26,34.31 -7.4,51.72 -1.22,18.72 -3.35,37.41 -6.71,55.88 -7.53,41.4 -26.13,84.22 -69.64,97.64 -14.52,4.48 -29.29,8.67 -44.17,12.02 -19.84,25.58 -47.73,52.06 -81.65,47.72 -15.69,-2.01 -27.64,-11.37 -35.69,-24.25l-22.42 7.85c-0.37,0.13 -0.68,0.23 -1.05,0.35 -27.26,8.47 -61.79,-0.61 -87.97,-9.44 -0.62,-0.21 -1.15,-0.41 -1.77,-0.66 -22.68,-9.22 -36.1,-28.92 -43.23,-51.62 -2.92,-9.28 -6.87,-21.75 -11.37,-29.69 -3.12,-5.24 -6.41,-10.58 -10.12,-15.43 -1.64,-2.14 -3.81,-4.76 -5.94,-6.45 -0.52,-0.41 -0.96,-0.77 -1.45,-1.22 -16.06,-14.35 -31.88,-32.89 -32.31,-55.54 -1.03,-21.45 1.47,-44.36 4.39,-65.57 2.76,-20.03 4.96,-40.5 5.4,-60.73 0.33,-15.35 -0.4,-30.78 -2.62,-45.98 -0.06,-0.4 -0.1,-0.75 -0.15,-1.15 -1.27,-11.74 -5.5,-37.61 -16.74,-44.76 -7.99,-5.08 -16.44,-10.87 -23.14,-17.58 -7.25,-7.25 -11.45,-16.35 -13.21,-26.1 -2.54,4.76 -5.35,9.42 -8.4,13.98 -0.02,0.04 -0.05,0.08 -0.08,0.11 -1.39,4.84 -0.79,15.89 -0.45,20.33 1.62,20.51 3.02,41.04 3.42,61.62 0.55,28.01 1.57,82.29 -11.54,107.48 -5.17,9.93 -11.95,23.11 -20.48,30.42 -3.83,3.28 -7.63,6.37 -12.01,8.93 -0.8,0.47 -1.5,0.84 -1.7,0.88 -5.52,4.08 -12.79,23.72 -14.88,29.98 -9.07,27.12 -22.24,53.41 -41.24,74.98 -15.22,17.27 -32.3,33.07 -51.62,45.67 -12.27,8.01 -24.53,16.03 -36.79,24.07 -2.82,1.85 -8.72,5.85 -10.7,8.65 -3.67,5.18 -7.44,10.3 -11.02,15.56 -0.56,0.83 -1.07,1.51 -1.7,2.28 -15.79,19.21 -37.08,29.76 -62.03,29.76 -28.73,0 -58.13,-6.59 -79.23,-27.36 -1.06,-1.04 -1.9,-1.99 -2.8,-3.16 -8.02,-10.4 -14.53,-22.81 -20.1,-34.74 -9.03,-15.74 -20.88,-28.7 -35.91,-38.93 -29.67,-20.21 -46.32,-50.12 -52.04,-85.23 -2.93,-13.03 -3.68,-26.32 -2.1,-39.59 1.08,-9.14 -0.23,-20.39 -1.62,-29.43 -0.11,-0.68 -0.18,-1.26 -0.24,-1.95 -1,-11.21 -3.19,-22.65 -7.15,-33.21 -5.13,-13.65 -8.93,-27.83 -10.08,-42.41 -0.67,-5.37 -3.01,-19.49 -6.55,-24.14 -39.48,-5.8 -46.58,-54.78 -48.61,-87.11 -0.02,-0.24 -0.03,-0.44 -0.04,-0.68 -0.82,-20.08 -0.11,-40.24 2.61,-60.16 2.2,-16.1 5.12,-32.57 10.01,-48.12 -3,3.8 -6.4,7.31 -10.26,10.43 -11.61,9.38 -24.9,15.52 -39.6,18.03 -11.4,1.94 -23.03,2.56 -34.56,1.48 -3.3,-0.31 -6.68,-0.6 -10.04,-0.8 -0.02,0.02 -0.03,0.04 -0.05,0.06 -0.93,1.24 -1.79,2.24 -2.89,3.33 -9.13,9.13 -20.37,12.79 -32.1,13.23 8.02,5.34 15.12,11.96 21.35,19.51 1.77,2.14 5.05,6.09 7.43,7.89 4.6,2.13 9.11,4.36 13.07,6.35 3.57,1.69 7.13,3.38 10.1,4.79 12.68,5.64 20.74,16.63 25.23,29.41 12.75,34.24 13.96,71.63 8.45,107.47 -1.12,10.59 -2.41,21.17 -4.03,31.7 -1.01,6.56 -1.96,13.13 -2.87,19.71 -0.69,5.02 -1.46,10.02 -2.18,15.04 -0.06,0.41 -0.12,0.76 -0.19,1.17 -0.73,3.99 -0.67,9.41 -0.67,13.46 0,29.85 -4.21,62.59 -20.03,88.52 -10.75,17.62 -24.63,34.76 -42.73,45.22 -4.19,2.42 -10.95,6.09 -14.03,8.65 -0.35,0.47 -0.73,1.37 -0.96,1.9 -3.03,7.13 -7.17,13.78 -11.51,20.18 -0.14,0.2 -0.26,0.38 -0.4,0.57 -13.91,19.54 -33.59,32.12 -56.37,39.12 -23.78,7.31 -48.52,10.42 -73.38,9.99 -18.77,-0.32 -39.21,-0.93 -57.66,-4.47 -18.37,-3.52 -34.72,-12.15 -48.67,-24.52 -12.3,-10.91 -22.7,-23.46 -31.23,-37.5 -0.12,-0.19 -0.22,-0.36 -0.33,-0.56 -0.74,-1.28 -1.74,-3.02 -2.8,-4.68l-12.26 0c-21.12,0 -40.78,-7.63 -51.66,-26.6 -7.3,-12.73 -10.78,-26.99 -8.13,-41.6 1.07,-5.89 0.53,-14.74 0.15,-20.7 -0.04,-0.69 -0.06,-1.28 -0.06,-1.97 0,-11.81 0.18,-23.64 0.61,-35.44 0.71,-19.45 8.91,-36.45 23.31,-49.52 0.56,-0.51 1.06,-0.93 1.65,-1.4 18.69,-14.72 41.36,-28.16 65.68,-29.54 2.29,-0.13 6.63,-0.44 9.5,-1.15 1.92,-2.02 3.87,-4.19 5.33,-6.29 7.54,-10.89 19.04,-17.82 32.11,-19.87 9.82,-1.54 19.64,-0.74 29.17,2.1 20.71,6.17 35.92,20.18 40.42,40.04 -0.04,-26.43 -12.87,-42.8 -35.6,-55.45 -13.15,-7.32 -26.43,-14.41 -39.7,-21.49 -15.16,-8.09 -29.21,-17.89 -42.31,-29 -0.15,-0.13 -0.28,-0.24 -0.43,-0.37 -29.3,-25.78 -50.39,-57.55 -59.16,-95.77 -3.87,-16.85 -8.03,-38.07 -13.85,-54.27 -0.82,-2.29 -1.95,-5.62 -3.15,-8.08 -9.31,-5.16 -16.68,-14.35 -22.69,-22.99 -14.55,-19.92 -17.21,-43.75 -10.15,-67.21 3.86,-12.79 7.51,-25.64 11.37,-38.44 2.43,-8.04 3.38,-16.55 3.38,-24.93 0,-11.09 -0.52,-22.16 -1.61,-33.2 -1.29,-13 -1.92,-26.08 -1.92,-39.14 0,-0.62 0.02,-1.14 0.05,-1.76 2.01,-35.39 15.46,-66.84 38.14,-94.01 22.04,-26.4 49.78,-44.47 83.44,-51.71 11.8,-3 23.62,-5.91 35.57,-8.26 9.12,-1.79 18.11,-5.7 26.16,-10.26 17.28,-9.8 42.89,-23.64 63.15,-23.64 9.97,0 20.51,0.78 30.05,3.83 3.63,1.16 7.75,1.82 11.52,2.28 5.54,0.67 11.26,0.75 16.84,0.75 9.83,0 19.71,1.08 29.4,2.71 43.57,6.06 80.8,35.75 109.94,66.94 22.2,23.76 39.36,51.71 46.12,83.8 5.36,25.42 7.85,51.29 7.12,77.26 -0.32,11.44 -0.46,26.58 0.96,40.54 0.05,-0.61 0.11,-1.22 0.17,-1.82 3.76,-39.45 12.18,-81.28 31.28,-116.39 0.19,-0.35 0.37,-0.66 0.57,-1 9.53,-16.05 22.7,-29.93 36.74,-42.11 13.02,-11.29 26.3,-22.26 39.54,-33.29 6.29,-5.76 12.02,-12.09 16.92,-19.08 8.36,-11.94 18.67,-22.3 30.19,-31.18 31.85,-26.27 69.56,-38.22 109.64,-24.76 0.36,0.12 0.67,0.23 1.02,0.36 26.62,9.99 54.93,18.21 83.25,21.34 26.72,2.95 56.01,9.98 76.93,27.83 13.84,11.8 26.34,24.87 37.34,39.37 24.74,32.63 40.92,69.35 46.24,110.02 0.1,0.76 0.16,1.41 0.21,2.17 0.18,2.99 0.7,9.63 1.93,12.6 0.22,0.34 0.42,0.67 0.64,1.04 15.57,26.25 17.51,57.75 13.92,87.41 -1.76,14.5 -4.84,37.48 -3.29,51.96 0.02,0.21 0.04,0.39 0.06,0.6 0.29,3.31 1.04,10.32 2.42,13.31 2.93,5.76 5.53,11.64 8.15,17.55 0.12,0.26 0.21,0.49 0.33,0.76 3.52,8.52 6.32,17.23 8.29,26.12 2.2,-13.92 5.84,-29.45 12.9,-41.71 0.01,-0.01 0.02,-0.03 0.02,-0.04 1.68,-4.38 2.04,-15.05 2.12,-19.52 0.25,-14 0.03,-28.18 -1.41,-42.12 -1.14,-11.06 -2.56,-22.11 -4.43,-33.07 -0.13,-0.77 -0.22,-1.43 -0.3,-2.21 -1.96,-20.13 -3.01,-42.09 0.26,-62.11 1.62,-9.93 2.51,-20.3 1.51,-30.35 -1.3,-13.08 -1.68,-26.31 -0.64,-39.42 3.74,-47.44 40.76,-82.15 78.55,-106.28 34.56,-22.07 76.29,-35.62 115.47,-17.37 3.95,1.6 11.95,4.6 15.94,4.74 7.2,-1.36 14.82,-2.64 22.15,-2.64 10.32,0 19.73,3.67 28.48,8.79 4.81,-0.9 9.54,-2.19 14.17,-3.78 1.12,-0.38 2.09,-0.66 3.24,-0.92 19.16,-4.32 41.71,-7.42 60.85,-1.55 1.72,0.53 5.76,1.6 7.64,1.34 0.26,-0.08 0.51,-0.14 0.79,-0.21 8.05,-2.01 16.47,-3.67 24.79,-3.67 11.44,0 22.16,4.07 32.07,9.45 0.21,0.11 0.38,0.21 0.59,0.33 1.8,1.03 5.24,2.83 7.33,3.16 4.96,0.79 9.95,1.61 14.86,2.68 20.47,4.47 32.59,21.09 39.56,39.62 3.75,9.24 6.59,19.04 7.79,28.95 0.68,5.6 1.22,11.22 1.91,16.82 1.11,4.18 3.03,9.59 6.05,12.43 12.47,10.75 19.72,25.14 19.72,41.72 0,0.57 0.01,1.3 0.04,2.06 9.49,8.29 15.77,19.77 20.55,31.37 5.46,13.26 9.05,27.3 11.51,41.43 0.04,-0.29 0.08,-0.58 0.11,-0.86 0.06,-0.46 0.12,-0.85 0.2,-1.31 0.27,-1.58 0.41,-3.34 0.26,-4.94 -0.41,-4.41 -0.66,-8.82 -0.71,-13.24 -1.34,-12.74 -1.56,-25.84 0.33,-38.51 0.04,-0.3 0.09,-0.56 0.14,-0.86 1.03,-5.81 3.45,-19.69 2.56,-25.33 -3.34,-15.65 0.32,-33.12 4.61,-48.26 3.38,-11.95 7.32,-25.67 12.8,-36.82 7.08,-14.39 19.47,-23.8 34.3,-29.32 0.21,-0.08 0.39,-0.14 0.6,-0.22 6.03,-2.1 11.79,-5.48 16.99,-9.16 7.1,-5.02 13.9,-10.44 20.63,-15.94 5.82,-4.76 11.46,-9.71 16.98,-14.81 9,-8.34 19.88,-14.28 31.58,-17.88 1.02,-0.31 1.9,-0.54 2.94,-0.75 20.14,-4.1 44.84,-7.39 64.75,-0.82 11.29,3.73 23.17,8.91 32.39,16.53 0.21,0.18 0.39,0.33 0.6,0.51 3.61,3.14 8.3,5.96 11.77,8.08 4.02,2.32 8.28,4.19 12.76,5.44 3.99,0.93 8.45,1.79 12.52,1.79 1.06,0 1.96,0.04 3.01,0.15 12.93,1.26 29.22,3.1 41.03,10.01l31.98 -2.05c0.7,-0.05 1.29,-0.06 1.99,-0.06 25.16,0 54.05,3.39 74.68,19.09 10.72,8.16 21.52,17.31 30.23,27.64 6.48,7.69 12.32,15.85 17.8,24.28 0.19,0.29 0.34,0.53 0.52,0.83 3.57,5.91 8.67,11.38 13.65,16.11 13.85,13.17 21.81,30.19 21.81,49.37 0,0.82 0.09,2.99 0.41,3.65 12.87,13.98 16.84,32.57 16.84,51.04 0,13.12 -0.17,26.23 -0.57,39.34zm-1821.96 174.29c-5.92,-5.62 -11.23,-12 -15.9,-19.04 -17.02,-25.61 -16.21,-55.91 -7.2,-84.2 0.91,-3.19 1.87,-6.35 2.88,-9.51 -4.4,5.46 -7.27,11.74 -8.83,18.85 -1.14,5.22 -3.73,17.05 -3.26,22.02 1.53,8.92 2.21,17.97 2.21,27.01 0,6.75 0.35,13.51 0.95,20.24 0.96,5.86 3.45,19 6.07,22.74 0.69,0.73 1.64,1.73 2.59,2.59 0.57,0.01 1.15,-0.01 1.72,-0.06 5.39,-0.5 10.79,-0.72 16.21,-0.72 0.85,0 1.71,0.02 2.56,0.07zm469.13 201.46c0.74,2 2.13,5.48 3.73,8.62 3.32,-7.47 6.29,-17.51 7.43,-21.78 7.07,-26.36 10.73,-55.37 13.54,-82.48 3.22,-31.08 4.34,-62.6 4.34,-93.83 0,-30.3 -3.96,-61.88 -15.94,-89.94 -1.78,-4.17 -9.25,-19.74 -14.69,-23.52 -7.05,6.75 -15.79,28.26 -18.32,35.15 -3.64,9.93 -14.64,40.69 -14.1,50.35 0.68,3.68 1.98,8.24 4.5,11.15 10.81,12.48 16.48,28.84 19.56,44.84 3.34,17.32 4.3,35.04 3.46,52.64 -0.73,15.24 -1.14,30.5 -1.14,45.76 0,12.02 0.5,24.19 2.08,36.11 1.19,9.02 2.84,18.2 5.52,26.92zm541.88 -320.67c-0.19,2.29 -0.24,4.6 -0.1,6.88 0.32,4.99 1.18,9.98 2.27,14.86 0.13,0.59 0.23,1.09 0.33,1.69 3.04,18.43 5.02,37.13 5.5,55.81 0.26,10.25 0.44,20.61 0.23,30.9 13.4,-25.67 22.05,-53.07 24.58,-82.19 0.03,-0.37 0.06,-0.68 0.11,-1.05 0.75,-6.15 -0.13,-11.78 -3.15,-17.2 -0.63,-1.13 -1.57,-2.79 -2.55,-4.28 -3.44,-0.55 -6.91,-0.95 -10.33,-1.31 -5.94,-0.61 -11.62,-1.96 -16.89,-4.12zm537.5 108.7c2.27,-4.37 4.56,-8.73 6.84,-13.08 6.66,-12.74 13.04,-26.13 17.66,-39.13 2.72,-8.15 3.09,-16.41 1.73,-24.87 -1.73,-10.82 -3.92,-23.37 -3.92,-34.31l0 -5.97c-9.18,0.4 -18.28,-1.24 -26.88,-4.99 -0.18,-0.07 -0.39,-0.15 -0.6,-0.23 -0.32,0.31 -0.62,0.61 -0.87,0.86 -0.75,0.76 -2.27,2.4 -2.86,3.52 -0.56,5.67 -0.39,11.57 0.06,17.25 2.66,18.54 5.94,39.95 6.06,58.67l2.78 42.28z"/>
   <path class="fil2" d="M139.13 179.87c18.43,-22.15 40.58,-35.87 66.65,-41.36 11.56,-2.94 22.94,-5.69 34.5,-8.04 11.37,-2.16 23.33,-6.86 35.48,-13.72 23.13,-13.13 39.01,-19.6 47.83,-19.6 8.82,0 15.68,0.78 20.58,2.35 4.9,1.57 10.78,2.74 17.25,3.53 6.47,0.78 13.33,0.98 20.58,0.98 7.25,0 15.49,0.78 24.7,2.35 29.21,3.92 59.79,22.94 91.94,57.43 20.78,22.15 33.52,45.28 38.42,69 5.1,23.72 7.25,47.05 6.47,69.98 -0.78,32.93 1.37,57.43 6.86,73.51 5.29,16.07 8.82,28.42 10.39,36.85 1.37,8.43 0.39,20 -2.94,34.89 -3.53,14.9 -9.02,25.48 -16.66,31.56 -7.65,6.27 -16.08,10 -25.29,11.56 -9.21,1.57 -18.03,1.96 -26.46,1.18 -8.43,-0.78 -15.29,-1.18 -20.58,-1.18 -5.49,0 -9.02,1.37 -10.98,4.12 -1.96,2.55 -3.92,5.49 -6.27,8.62 -5.29,5.29 -15.68,5.69 -30.97,0.98 -15.29,-4.51 -28.03,-14.31 -38.03,-29.21 -9.8,-14.9 -10.98,-34.31 -3.33,-58.03 2.16,-7.64 4.51,-14.7 6.86,-21.17 2.35,-6.67 2.74,-12.16 1.18,-16.66 -3.14,-10.78 -10.39,-16.46 -21.95,-17.25 -11.37,-0.78 -21.37,2.35 -29.8,9.21 -11.37,10.58 -19.01,23.91 -22.34,39.6 -3.53,15.68 -4.71,27.05 -3.53,33.91 1.18,6.86 1.76,14.12 1.76,21.76 0,7.64 0.39,15.68 1.18,24.11 3.14,19.99 7.84,33.32 14.31,40.18 6.47,6.86 12.15,10.78 16.66,11.57 4.71,0.78 9.02,0.98 13.13,0.59 4.31,-0.39 8.63,-0.59 13.33,-0.59 4.51,0 10.98,1.96 19.41,5.68 8.43,3.92 17.05,7.64 25.87,11.56 8.82,3.73 16.66,9.8 23.52,18.23 7.06,8.43 12.94,13.92 17.84,16.08 5.1,2.35 9.41,4.51 13.33,6.47 3.72,1.76 7.45,3.53 10.78,5.1 3.53,1.57 6.47,5.29 8.63,11.56 10,26.66 12.35,57.83 6.86,92.92 -1.37,13.13 -2.74,23.33 -3.92,30.97 -1.18,7.64 -2.15,14.51 -2.94,20.19 -0.78,5.68 -1.57,10.78 -2.16,14.9 -0.78,4.31 -1.18,10.59 -1.18,19.01 0,31.36 -5.29,55.47 -15.49,72.33 -10.39,16.86 -20.97,28.23 -31.76,34.5 -10.59,6.07 -17.45,10.58 -20.58,13.72 -3.14,3.14 -5.49,6.86 -7.45,11.56 -1.96,4.51 -4.9,9.41 -8.63,14.9 -9.21,12.94 -22.54,22.15 -40.18,27.44 -20,6.27 -41.17,9.02 -63.71,8.63 -22.74,-0.39 -39.99,-1.57 -52.34,-3.92 -12.15,-2.35 -23.52,-8.04 -33.91,-17.25 -10.39,-9.21 -18.62,-19.41 -25.29,-30.38 -6.47,-11.17 -11.56,-17.25 -15.49,-18.43 -3.73,-1.18 -8.04,-1.76 -12.55,-1.76l-13.92 0c-12.15,0 -20.39,-3.53 -24.7,-10.98 -4.12,-7.25 -5.68,-14.11 -4.51,-20.58 1.18,-6.47 1.37,-15.88 0.59,-28.23 0,-12.15 0.2,-23.72 0.59,-34.3 0.39,-10.78 4.71,-20 13.13,-27.64 18.43,-14.51 34.5,-22.15 48.22,-22.94 13.92,-0.78 23.13,-3.53 27.64,-8.04 4.51,-4.7 8.23,-8.82 10.98,-12.74 2.55,-3.72 6.47,-6.08 11.37,-6.86 5.1,-0.78 10.19,-0.39 15.49,1.18 13.13,3.92 19.6,11.56 19.6,22.93 0,11.57 0.2,22.15 0.59,31.56 0.39,9.6 1.76,18.23 3.92,25.88 5.49,19.99 15.49,29.21 29.99,27.64 16.08,-1.57 24.9,-17.64 26.27,-48.22 0,-8.43 0,-16.47 0,-24.11l0 -25.29c0,-36.07 -17.05,-63.51 -51.55,-82.72 -13.72,-7.64 -27.25,-14.9 -40.19,-21.76 -13.13,-7.06 -25.29,-15.49 -36.85,-25.29 -26.07,-22.94 -42.54,-49.4 -49.4,-79.39 -6.86,-29.8 -11.76,-49.2 -14.9,-57.83 -3.14,-8.82 -5.88,-14.9 -8.63,-17.84 -2.55,-3.14 -5.49,-5.49 -8.62,-6.86 -2.94,-1.57 -7.25,-6.27 -12.55,-13.92 -8.43,-11.37 -10.39,-24.9 -5.68,-40.18 4.51,-15.29 8.23,-28.03 11.37,-38.42 3.14,-10.39 4.71,-21.76 4.71,-33.91 0,-12.35 -0.59,-24.31 -1.76,-36.27 -1.18,-11.76 -1.77,-23.91 -1.77,-36.07 1.57,-27.64 11.76,-52.93 30.97,-75.86zm565.14 -6.86c8.43,-7.64 15.68,-15.88 21.96,-24.7 6.07,-8.82 14.11,-17.05 24.11,-24.7 26.66,-22.15 53.51,-28.62 80.37,-19.6 32.93,12.35 63.12,20 90.76,23.13 27.44,2.94 47.63,9.8 60.18,20.58 12.74,10.78 23.52,22.15 32.74,34.5 22.15,29.01 35.68,60.77 40.18,95.27 0.78,13.13 3.14,22.15 6.86,27.64 10,16.86 13.33,39.4 9.8,67.82 -3.33,28.23 -4.51,48.02 -3.33,59 0.98,11.17 2.94,19.41 5.68,24.7 2.74,5.49 5.1,10.78 7.45,16.07 6.07,14.7 9.21,29.21 9.21,43.71 0,18.43 -6.07,36.66 -18.42,55.08 -5.29,6.86 -7.25,20.39 -5.69,40.18 1.57,20 2.74,39.8 3.33,59.79 0.78,49.79 -1.76,80.57 -8.04,92.52 -6.08,11.76 -10.39,18.82 -13.13,21.17 -2.74,2.35 -5.1,4.31 -7.45,5.68 -11.56,5.49 -21.56,21.37 -30.38,47.83 -8.82,26.27 -20.58,47.83 -35.09,64.3 -14.51,16.46 -29.6,29.79 -45.28,40.18 -15.88,10.19 -28.03,18.23 -36.85,24.11 -8.82,5.69 -15.09,11.17 -19.01,16.66 -3.72,5.29 -7.64,10.59 -11.37,16.07 -10,12.16 -22.54,18.43 -38.03,18.43 -25.88,0 -45.09,-6.27 -57.43,-18.43 -5.29,-6.86 -10.98,-16.86 -17.05,-29.99 -11.57,-20.58 -26.86,-37.44 -46.07,-50.38 -21.37,-14.7 -34.5,-36.46 -39.01,-65.47 -2.35,-10 -2.94,-19.99 -1.76,-29.99 1.18,-9.8 0.59,-22.54 -1.77,-37.83 -1.37,-15.29 -4.51,-29.21 -9.02,-41.36 -4.71,-12.35 -7.45,-23.72 -8.23,-34.5 -3.73,-32.15 -14.51,-49.4 -32.15,-51.75 -12.94,-1.37 -20.58,-20.97 -22.94,-58.41 -0.78,-19.21 0,-37.44 2.35,-54.69 2.35,-17.25 5.29,-31.95 9.21,-44.11 6.08,-22.35 8.04,-48.02 5.69,-77.63 -2.35,-29.4 -2.35,-55.67 0,-78.61 3.92,-42.93 13.13,-77.82 27.64,-104.48 6.86,-11.56 17.05,-22.94 30.39,-34.5 13.33,-11.56 26.66,-22.54 39.6,-33.32zm72.92 328.54c1.96,10.59 5.88,19.21 11.56,25.87 5.68,6.47 10,16.66 12.55,30.39 2.74,13.72 3.72,28.82 2.94,45.28 -0.78,16.46 -1.18,32.15 -1.18,47.24 0,14.9 0.78,28.23 2.35,40.19 1.57,11.76 3.73,22.74 6.86,32.74 8.43,23.72 20.19,35.48 35.68,35.48 23.72,0 40.19,-45.87 49.4,-137.81 2.94,-25.29 4.51,-57.63 4.51,-97.03 0,-39.4 -6.08,-73.51 -18.43,-102.13 -12.15,-28.82 -27.05,-43.13 -44.69,-43.13 -16.86,0 -32.15,18.82 -46.06,56.26 -12.16,33.72 -17.45,55.87 -15.49,66.65zm782.73 49.4c-21.37,23.72 -43.32,42.73 -65.47,57.44 19.21,2.94 35.87,7.84 49.99,14.31 14.11,6.47 21.17,16.46 21.17,29.79 0,13.52 1.57,23.13 4.71,29.4 2.94,6.08 6.08,12.15 9.21,18.23 7.64,14.7 9.41,31.76 5.1,51.16 -4.11,19.6 -6.86,38.22 -8.04,56.26 -1.18,18.03 -3.33,35.48 -6.27,52.34 -7.64,41.36 -23.72,65.86 -48.22,73.51 -19.99,6.08 -37.64,10.78 -52.93,13.72 -22.94,32.15 -42.93,47.05 -59.79,44.89 -6.07,-0.78 -10.98,-5.1 -14.9,-12.74 -3.72,-7.64 -8.82,-11.76 -14.9,-12.55 -6.08,-0.78 -12.55,0 -19.6,2.35l-22.94 8.04c-14.51,4.51 -37.44,1.37 -68.81,-9.21 -11.56,-4.7 -19.99,-15.29 -25.29,-32.15 -5.29,-16.86 -10.19,-29.01 -14.31,-36.27 -4.31,-7.25 -8.23,-13.33 -12.15,-18.43 -3.73,-4.9 -7.65,-9.02 -11.37,-11.96 -14.7,-13.13 -21.95,-24.11 -21.95,-33.32 -0.78,-15.29 0.59,-35.48 4.11,-60.38 3.33,-24.9 5.29,-46.26 5.69,-64.3 0.39,-18.03 -0.59,-35.09 -2.94,-51.16 -3.72,-34.31 -14.11,-57.04 -30.97,-67.63 -8.43,-5.49 -14.31,-9.8 -17.84,-13.33 -3.33,-3.33 -5.1,-8.63 -5.1,-15.49 0,-6.86 1.57,-16.86 4.51,-29.79 3.14,-13.13 5.88,-26.86 8.04,-41.36 2.35,-14.51 5.49,-25.09 9.21,-31.56 3.92,-6.47 6.08,-18.03 6.27,-34.5 0.39,-16.47 -0.2,-31.75 -1.57,-45.87 -1.57,-14.31 -3.14,-25.87 -4.71,-35.09 -2.15,-22.15 -2.15,-40.18 0,-54.1 2.35,-13.72 2.94,-26.46 1.77,-38.42 -1.18,-11.76 -1.37,-23.13 -0.59,-33.91 2.35,-29.01 23.72,-56.65 64.29,-82.53 33.72,-21.56 62.53,-26.46 86.25,-15.09 15.29,6.27 26.46,8.43 33.91,6.86 7.25,-1.37 12.74,-2.16 16.66,-2.16 3.72,0 8.23,1.76 13.72,5.1 5.29,3.53 11.37,4.71 18.43,3.53 6.86,-1.18 13.72,-2.94 20.58,-5.29 19.99,-4.51 34.89,-5.29 44.89,-2.16 9.8,2.94 18.23,3.53 25.09,1.57 7.06,-1.77 12.74,-2.74 17.25,-2.74 4.7,0 10.39,1.96 17.25,5.68 6.86,3.92 12.94,6.08 17.84,6.86 4.9,0.78 9.41,1.57 13.13,2.35 7.06,1.57 12.74,8.43 17.25,20.58 3.14,7.64 5.1,14.9 5.88,21.37 0.78,6.47 1.37,12.74 2.16,18.82 3.14,13.13 8.43,23.13 16.07,29.99 6.27,5.29 9.21,11.37 9.21,18.43 0,12.15 2.74,19.99 8.04,23.52 5.49,3.33 10.39,10.59 14.9,21.76 4.71,11.17 8.04,24.3 10.39,39.6 6.08,39.01 2.35,74.69 -11.37,106.83 -4.71,55.08 -18.43,88.41 -41.36,99.97 -3.92,1.57 -10.39,4.51 -19.6,9.21zm-180.93 -209.75c-1.96,-5.68 -3.72,-10.39 -5.68,-14.31 -1.96,-3.72 -4.9,-4.9 -9.21,-3.33 -4.12,1.37 -6.86,4.12 -8.04,8.04 -1.18,3.72 -1.76,8.43 -1.76,13.72 0,5.29 0.19,11.17 0.59,17.25 0.39,6.07 0,12.55 -1.18,19.41 -1.18,7.06 -1.57,13.52 -1.18,19.6 0.39,6.08 1.37,12.55 2.94,19.6 3.14,19.01 4.71,36.27 5.1,51.55 0.39,15.29 0.39,27.64 0,36.85 -0.39,9.21 -0.59,17.25 -0.59,24.11 0.78,12.15 6.67,20.19 17.25,24.11 10.78,4.51 22.74,-5.1 35.68,-28.82 19.99,-34.3 31.36,-69.59 34.5,-105.66 1.57,-12.94 -0.78,-25.09 -6.86,-36.07 -6.27,-11.17 -11.96,-17.25 -17.25,-18.43 -5.49,-1.18 -11.96,-2.16 -19.6,-2.94 -7.64,-0.78 -13.13,-3.53 -16.66,-8.63 -3.33,-4.9 -6.08,-10.19 -8.04,-16.08zm5.68 476.15c7.45,-5.29 11.96,-11.17 13.92,-17.25 1.96,-6.08 5.49,-11.56 10.78,-16.66 5.49,-4.9 8.82,-15.09 10.39,-30.39 2.35,-26.07 -0.2,-44.69 -7.45,-55.67 -7.25,-11.17 -11.96,-24.7 -14.31,-40.77 -8.43,-5.49 -14.12,-9.8 -17.25,-13.33 -3.14,-3.33 -6.07,-3.92 -9.21,-1.57 -3.14,2.15 -4.31,5.49 -3.92,9.6 0.39,4.31 -0.19,9.02 -1.76,14.51 -1.57,5.29 -3.33,10.78 -5.29,16.66 -1.76,5.68 -1.76,12.94 0,21.76 1.96,8.82 2.35,17.05 1.18,24.7 -1.18,7.64 -2.55,17.84 -4.51,30.39 -1.96,12.74 -3.14,21.95 -3.53,28.23 -0.39,6.08 2.94,13.92 9.8,23.52 6.86,9.61 13.92,11.57 21.17,6.27zm597.88 -677.66l36.66 -2.35c26.07,0 44.69,4.31 55.87,12.74 10.98,8.43 19.41,16.07 25.29,22.94 5.69,6.86 10.78,13.92 15.49,21.17 4.51,7.45 10.78,14.9 18.82,22.54 8.04,7.64 12.15,16.66 12.15,26.86 0,10.39 2.94,18.62 8.63,24.7 5.68,6.27 8.63,16.07 8.63,29.99 0,13.72 -0.2,26.86 -0.59,39.6 -0.39,12.54 -1.76,22.93 -4.12,30.97 -2.16,8.04 -3.33,16.08 -3.33,24.11 0,8.04 1.77,15.29 5.1,21.76 3.53,6.67 3.92,22.35 1.18,47.24 -2.74,24.9 -6.86,49.99 -12.55,75.08 -5.88,25.29 -13.33,47.24 -22.54,65.47 -18.42,34.5 -48.22,61.75 -89.58,81.55 3.92,9.21 8.23,19.41 13.33,30.58 4.9,10.98 9.6,22.35 14.31,33.91 10,28.23 14.9,48.81 14.9,61.36 0,12.55 0.59,21.76 1.77,27.64 1.18,5.68 2.35,10 3.92,13.13 1.57,3.14 3.72,5.29 6.47,6.86 2.55,1.57 6.67,4.51 11.96,8.63 5.29,4.31 9.61,11.37 12.74,21.37 2.94,9.8 4.51,20.19 4.51,30.97 0,24.5 -2.94,39.6 -8.63,45.28 -5.68,5.68 -11.96,9.6 -18.43,11.56 -6.47,1.96 -13.13,3.14 -19.99,3.92 -17.64,2.35 -28.82,0 -33.32,-6.86 -6.08,-6.08 -9.41,-12.35 -9.8,-19.01 -0.39,-6.47 -1.76,-12.16 -4.12,-17.05 -2.15,-5.1 -5.68,-8.04 -10.19,-9.21 -4.71,-1.18 -7.84,-6.08 -9.8,-14.51 -1.96,-8.43 -4.51,-13.92 -8.04,-16.66 -3.53,-2.55 -10.59,-3.14 -21.17,-1.57 -19.21,3.72 -33.32,-7.64 -42.54,-34.5 -2.35,-6.08 -4.71,-14.12 -6.86,-24.11 -2.35,-10 -5.1,-19.6 -8.04,-28.82 -6.27,-22.15 -13.33,-34.11 -21.37,-36.07 -8.04,-1.96 -13.92,-0.98 -17.84,2.74 -3.73,3.92 -6.67,9.02 -8.63,15.68 -1.77,6.47 -2.74,13.72 -2.74,21.76 0,8.04 0.98,16.66 2.74,25.88 1.96,9.21 2.15,16.86 0.59,22.94 -1.37,6.07 -3.53,11.17 -6.27,14.9 -2.74,3.92 -5.49,7.25 -8.62,10.39 -6.08,3.72 -9.8,11.37 -10.98,22.94 -0.98,11.56 -2.74,21.37 -5.1,29.79 -4.51,20.78 -10.78,33.72 -18.43,39.2 -7.64,5.29 -15.29,8.43 -22.93,9.61 -7.65,1.18 -15.29,0.98 -22.94,-0.59 -19.21,-3.73 -30.97,-10.39 -35.68,-20 -4.51,-9.6 -7.25,-16.86 -8.04,-21.76 -0.78,-5.1 -0.98,-9.8 -0.59,-14.5 0.39,-4.51 0.98,-9.61 1.77,-14.9 0.78,-5.29 0.98,-11.56 0.59,-19.01 -0.39,-7.25 -2.16,-16.86 -5.1,-29.21 -3.14,-12.15 -5.1,-26.86 -5.88,-43.71l-0.98 -29.79c0,-3.14 2.55,-8.23 8.04,-15.49 5.29,-7.25 7.06,-15.68 5.1,-25.29 -1.96,-9.6 -6.27,-15.68 -13.13,-18.43 -7.06,-2.55 -10.39,-5.88 -10.39,-9.8 0,-3.72 0.78,-13.33 2.35,-28.62 1.37,-15.29 0.78,-34.5 -1.76,-57.43 -2.74,-22.94 -4.51,-43.32 -5.29,-60.77 -2.94,-38.42 -9.6,-59.98 -19.99,-65.08 -10.39,-4.9 -16.27,-10.98 -17.84,-18.23 -1.57,-7.25 -1.57,-15.49 0,-24.7 1.57,-9.21 3.33,-20.78 5.1,-34.5 1.96,-13.72 4.12,-27.83 6.47,-41.95 2.16,-14.11 4.31,-27.44 6.27,-39.6 1.96,-12.35 3.33,-20.78 3.92,-25.29 0.78,-4.51 0.98,-9.02 0.59,-13.13 -0.39,-4.31 -0.59,-8.23 -0.59,-12.16 -1.37,-12.15 -1.37,-22.94 0,-32.15 3.14,-17.64 3.92,-29.99 2.35,-37.24 -1.57,-7.45 -0.19,-18.42 4.12,-33.32 4.12,-14.9 7.84,-25.48 10.78,-31.56 3.14,-6.27 8.82,-10.78 17.25,-13.92 8.43,-2.94 16.66,-7.45 24.7,-13.13 8.04,-5.68 15.49,-11.56 22.35,-17.25 7.06,-5.69 13.13,-11.17 18.43,-16.08 5.29,-4.9 11.96,-8.63 19.6,-10.98 22.15,-4.51 38.42,-5.1 48.81,-1.76 10.39,3.53 17.84,7.25 22.35,10.98 4.51,3.92 10.19,7.64 16.66,11.56 6.47,3.72 13.33,6.67 20.58,8.63 7.45,1.76 14.11,2.74 20.19,2.74 16.07,1.57 25.87,3.72 29.21,6.47 3.53,2.55 7.65,3.92 12.16,3.92zm-95.27 320.5l6.86 104.48c0,6.86 -0.39,13.53 -1.18,20.19 -0.78,6.47 -1.57,12.35 -2.35,17.64 -0.78,11.56 3.53,18.42 12.74,20.78 7.64,1.57 13.72,-0.59 18.23,-6.27 4.71,-5.88 8.82,-13.72 12.74,-23.52 9.21,-19.21 12.15,-31.56 9.21,-36.85 -6.27,-7.65 -7.84,-14.31 -5.29,-20.19 2.74,-5.69 8.43,-16.86 17.25,-33.72 8.82,-16.86 15.29,-31.56 19.6,-43.71 4.12,-12.35 5.1,-25.48 2.94,-39.6 -2.35,-14.12 -3.53,-23.92 -3.53,-29.4l0 -12.55c0,-6.08 -2.94,-11.76 -8.63,-16.66 -5.68,-4.9 -9.8,-7.64 -12.15,-8.04 -2.16,-0.39 -4.12,-0.59 -5.68,-0.59 -6.86,1.57 -13.33,0.98 -19.41,-1.77 -6.27,-2.55 -11.96,-3.72 -17.25,-3.33 -5.49,0.39 -11.57,3.92 -18.43,10.78 -6.86,7.06 -10.78,14.11 -11.56,21.37 -0.78,7.25 -0.78,15.49 0,24.7 3.92,27.44 5.88,46.26 5.88,56.26zm357.16 289.33l-1.18 -58.42c0,-10.78 0.39,-20.78 1.18,-29.99 0.78,-10 0,-22.15 -2.35,-36.66 -3.73,-25.29 -5.49,-43.91 -5.1,-55.67 0.39,-11.96 0.39,-21.56 0,-28.82 -0.39,-7.25 -1.37,-13.92 -2.94,-19.99 -2.16,-9.21 -7.84,-23.92 -16.66,-43.71 -8.82,-20 -13.13,-41.36 -13.13,-64.3 0,-22.94 4.9,-41.36 14.9,-55.08 9.21,-13.92 12.74,-28.03 10.39,-42.54 -2.35,-14.51 -4.12,-30.19 -5.29,-46.65 -0.98,-16.47 -1.18,-33.32 -0.39,-50.38 0.59,-17.25 4.51,-33.91 11.37,-49.99 16.86,-39.2 50.58,-57.83 101.15,-56.26 31.36,0.59 58.61,3.72 81.55,9.02 22.94,5.49 39.79,7.84 50.57,7.06 10.59,-0.78 27.05,-4.71 49.4,-11.56 32.15,-12.16 57.63,-11.57 76.84,2.35 5.29,3.72 10.59,6.67 15.49,8.63 5.1,1.76 9.41,4.71 13.33,8.63 12.94,14.51 16.86,46.26 11.37,95.27 -1.57,14.51 -2.94,29.01 -4.51,43.71 -3.92,34.31 -3.92,59.98 0,76.84 3.73,16.86 5.88,31.56 6.27,44.3 0.39,12.54 -0.2,23.91 -1.76,33.91 -4.51,22.15 -13.33,33.32 -26.46,33.32 -11.37,-0.78 -19.6,-4.51 -24.7,-10.98 -4.9,-6.47 -8.82,-13.72 -11.96,-21.76 -3.14,-8.04 -6.27,-15.49 -9.8,-21.96 -3.33,-6.47 -10.98,-9.8 -22.35,-9.8 -33.72,0 -56.06,-3.53 -67.24,-10.78 -11.17,-7.25 -20.78,-11.56 -29.21,-12.74 -8.43,-1.18 -16.47,-0.19 -24.11,2.94 -16.08,6.86 -25.48,19.6 -28.23,37.83 -2.74,18.43 -4.31,34.5 -5.1,48.22 -0.78,13.92 -0.78,26.46 0,38.03 1.57,26.66 6.67,41.95 15.49,45.28 8.82,3.53 16.27,3.92 22.35,1.18 6.08,-2.74 12.35,-5.88 18.43,-9.8 18.43,-12.15 37.24,-18.03 56.85,-17.84 19.41,0.39 34.11,8.23 43.71,23.72 9.41,15.29 13.52,29.99 11.96,44.1 -1.57,14.12 -2.94,28.23 -3.92,41.95 -1.18,13.72 -2.94,26.86 -5.29,39.01 -10.78,47.44 -32.93,56.65 -66.65,27.64 -43.52,-3.14 -70.77,2.35 -81.55,16.08 -2.15,3.72 -4.51,11.76 -6.86,24.11 -2.35,12.15 -2.74,25.29 -1.18,39.01 3.92,36.07 21.17,55.08 51.75,57.43 19.99,1.57 38.03,-1.18 54.49,-8.04 16.47,-6.86 27.44,-14.5 32.74,-22.93 4.71,-9.21 10.39,-14.31 17.25,-15.49 6.86,-1.18 13.13,-2.35 18.42,-3.53 5.29,-1.18 10.78,-1.77 16.08,-1.77 5.29,0 10.78,0.78 16.07,2.35 13.72,4.71 21.96,15.29 24.7,32.15 2.74,16.86 0.98,32.15 -5.1,46.06 -6.27,13.72 -10.19,26.07 -12.15,37.24 -1.96,11.17 -3.72,19.41 -5.1,24.7 -1.57,5.29 -6.08,12.16 -13.33,20.19 -7.25,8.04 -12.94,14.7 -17.25,20 -4.11,5.29 -10.78,4.31 -19.99,-3.33 -16.86,-13.13 -37.24,-5.49 -60.96,22.94 -6.07,8.43 -12.54,14.51 -19.41,18.23 -6.86,3.92 -17.64,5.49 -32.15,4.71 -14.7,-0.78 -26.07,-4.71 -34.5,-11.57 -8.43,-6.86 -16.07,-13.72 -22.94,-20.58 -11.56,-14.51 -31.36,-20 -59.79,-16.08 -16.86,2.35 -30.58,-5.1 -41.36,-21.95 -2.35,-2.16 -3.92,-6.47 -5.1,-12.55 -1.18,-6.07 -2.55,-12.94 -4.12,-20.58 -5.29,-20 -10.19,-32.74 -14.31,-38.62 -4.31,-5.68 -6.47,-13.13 -6.86,-22.35 -0.39,-9.21 -1.37,-19.01 -2.94,-29.21 -1.57,-10.39 -2.74,-18.04 -3.33,-23.13 -0.78,-4.9 -0.2,-10.78 1.57,-17.64 1.96,-7.06 2.94,-14.7 2.94,-23.13z"/>
  </g>
 </g>
</svg>
